<svg width="100" height="83" viewBox="0 0 100 83" fill="none" xmlns="http://www.w3.org/2000/svg">
<path d="M96.9202 22.5705C98.6215 22.5705 100.001 21.1913 100.001 19.4901C100.001 17.7888 98.6215 16.4097 96.9202 16.4097C95.219 16.4097 93.8398 17.7888 93.8398 19.4901C93.8398 21.1913 95.219 22.5705 96.9202 22.5705Z" fill="#F1F3F9"/>
<path d="M93.839 12.578C95.0009 12.578 95.9427 11.6361 95.9427 10.4743C95.9427 9.31246 95.0009 8.37061 93.839 8.37061C92.6772 8.37061 91.7354 9.31246 91.7354 10.4743C91.7354 11.6361 92.6772 12.578 93.839 12.578Z" fill="#F1F3F9"/>
<path d="M8.63982 19.4901C9.80165 19.4901 10.7435 18.5482 10.7435 17.3864C10.7435 16.2246 9.80165 15.2827 8.63982 15.2827C7.47798 15.2827 6.53613 16.2246 6.53613 17.3864C6.53613 18.5482 7.47798 19.4901 8.63982 19.4901Z" fill="#F1F3F9"/>
<path d="M3.90684 65.7712C6.06453 65.7712 7.81368 64.022 7.81368 61.8644C7.81368 59.7067 6.06453 57.9575 3.90684 57.9575C1.74915 57.9575 0 59.7067 0 61.8644C0 64.022 1.74915 65.7712 3.90684 65.7712Z" fill="#F1F3F9"/>
<path d="M94.5476 32.0317V72.7084C94.5476 72.8761 94.5476 72.96 94.5476 73.1277C94.4638 75.4761 93.3735 77.4889 91.6961 78.9147C90.2703 80.1728 88.3413 81.0115 86.2446 81.0115H20.5748C19.149 81.0115 17.8071 80.676 16.6329 80.005C16.1297 79.7534 15.6265 79.4179 15.2071 78.9986C14.2846 78.2438 13.4459 77.1535 13.0265 75.9793C12.6911 75.1406 12.4395 74.218 12.4395 73.2955V32.0317C12.4395 32.0317 15.8781 29.0963 20.8264 25.0705C25.9424 20.7932 32.652 15.2578 38.5228 10.3934C41.8776 7.54182 41.5421 7.87729 46.7421 3.51608C50.6839 0.161306 56.4709 0.161306 60.4128 3.51608C61.4192 4.35478 62.5095 5.36121 63.5159 6.19991C65.6965 7.96116 68.0449 9.97403 70.561 12.0708C75.8447 16.432 81.6317 21.2964 86.1607 25.0705C90.7735 28.8447 94.1283 31.6962 94.5476 32.0317Z" fill="#F1F3F9" stroke="#D6DCE8" stroke-width="2" stroke-miterlimit="10"/>
<path opacity="0.14" d="M86.1602 25.7378V40.3311L71.8186 48.9696L67.5412 51.5696L58.4833 57.0211L54.206 59.6211L52.3609 60.7114L50.5996 59.6211L46.5739 57.0211L37.9353 51.5696L33.9096 48.9696L20.6582 40.6666V25.8217C25.7742 21.5443 32.4838 16.009 38.3547 11.1445L70.4766 12.7381C75.8443 17.1831 81.6313 21.9637 86.1602 25.7378Z" fill="#989FB0"/>
<path d="M83.3088 14.164V39.8281L70.2252 47.628L66.3672 49.9763L58.0641 54.8407L54.2061 57.1891L52.5287 58.1116L50.9352 57.1891L47.2449 54.8407L39.3612 49.9763L35.671 47.628L23.5938 40.0797V14.164C23.5938 11.4802 25.7744 9.29962 28.542 9.29962H78.3605C81.0443 9.21575 83.3088 11.4802 83.3088 14.164Z" fill="white" stroke="#D6DCE8" stroke-width="2" stroke-miterlimit="10"/>
<path d="M94.5476 32.7832V73.8792C94.4638 76.2276 93.3735 78.2404 91.6961 79.6662C90.2703 80.9243 88.3413 81.763 86.2446 81.763H20.5748C19.149 81.763 17.8071 81.4275 16.6329 80.7565C16.1297 80.5049 15.6265 80.1694 15.2071 79.7501C14.2846 78.9953 13.4459 77.905 13.0265 76.7308C12.6911 75.8921 12.4395 74.9695 12.4395 74.047V73.9631V32.7832L49.1743 55.7634L52.3613 57.7763L53.4516 57.1053L54.458 56.5183L94.5476 32.7832Z" fill="#738DFF"/>
<path d="M91.7799 79.6662C90.3542 80.9243 88.4252 81.763 86.3284 81.763H20.5748C19.149 81.763 17.8071 81.4275 16.6329 80.7565C16.1297 80.5049 15.6265 80.1694 15.2071 79.7501C14.2846 78.9953 13.4459 77.905 13.0265 76.7308C12.6911 75.8921 12.4395 74.9695 12.4395 74.047V73.9631V32.7832L16.7168 35.3832L53.4516 57.1053L54.458 57.6924L54.5419 57.7763L87.5026 77.234L91.7799 79.6662Z" fill="white" stroke="#D6DCE8" stroke-width="2" stroke-miterlimit="10"/>
<path d="M94.5475 32.7832V73.8792C94.4637 76.2276 93.3734 78.2404 91.696 79.6662C90.2702 80.9243 88.3412 81.763 86.2445 81.763H20.5747C19.1489 81.763 17.807 81.4275 16.6328 80.7565C16.1296 80.5049 15.6264 80.1694 15.207 79.7501L19.4005 77.234L52.3612 57.7763L53.4515 57.1053L54.4579 56.5183L90.1863 35.2993L94.5475 32.7832Z" fill="white" stroke="#D6DCE8" stroke-width="2" stroke-miterlimit="10"/>
<path d="M84.6505 61.5502H62.8444C62.3412 61.5502 61.9219 61.1309 61.9219 60.6276C61.9219 60.1244 62.3412 59.7051 62.8444 59.7051H84.6505C85.1537 59.7051 85.5731 60.1244 85.5731 60.6276C85.6569 61.1309 85.2376 61.5502 84.6505 61.5502Z" fill="#D6DCE8"/>
<path d="M84.6505 67.8402H62.8444C62.3412 67.8402 61.9219 67.4209 61.9219 66.9177C61.9219 66.4145 62.3412 65.9951 62.8444 65.9951H84.6505C85.1537 65.9951 85.5731 66.4145 85.5731 66.9177C85.6569 67.4209 85.2376 67.8402 84.6505 67.8402Z" fill="#D6DCE8"/>
<path d="M89.1797 80.9239L91.8635 79.582C91.7796 79.6659 91.7796 79.6659 91.6958 79.7498C91.6958 79.7498 91.6958 79.7498 91.6119 79.7498L89.1797 80.9239Z" fill="#526DFF"/>
<path d="M51.6721 42.2177C51.0382 42.2177 50.4416 41.9848 49.9569 41.48L41.7167 32.8995C40.7845 31.9288 40.7845 30.2981 41.7167 29.3275C42.6488 28.3568 44.2149 28.3568 45.147 29.3275L51.6721 36.122L67.0339 20.1645C67.9661 19.1939 69.5321 19.1939 70.4642 20.1645C71.3964 21.1352 71.3964 22.7659 70.4642 23.7365L53.3872 41.48C52.9398 41.9848 52.3059 42.2177 51.6721 42.2177Z" fill="#D6DCE8"/>
</svg>
