<svg width="90" height="76" viewBox="0 0 90 76" fill="none" xmlns="http://www.w3.org/2000/svg">
<g opacity="0.5">
<path d="M86.6832 38.8846C86.6832 48.9424 82.5751 58.0085 75.988 64.5248C69.5425 70.9703 60.618 74.8659 50.7728 74.8659C40.9983 74.8659 32.0738 70.8995 25.5575 64.5248C18.9704 58.0085 14.8623 48.9424 14.8623 38.8846C14.8623 18.9816 30.9406 2.90332 50.7728 2.90332C70.605 2.90332 86.6832 19.0524 86.6832 38.8846Z" fill="#E5ECF5" stroke="#90ABC6" stroke-width="2" stroke-miterlimit="10"/>
<path d="M83.5661 15.2992C85.1699 15.2992 86.4701 13.999 86.4701 12.3952C86.4701 10.7914 85.1699 9.49121 83.5661 9.49121C81.9623 9.49121 80.6621 10.7914 80.6621 12.3952C80.6621 13.999 81.9623 15.2992 83.5661 15.2992Z" fill="#D0DAEF"/>
<path d="M87.8157 3.96644C88.911 3.96644 89.799 3.07852 89.799 1.98322C89.799 0.887918 88.911 0 87.8157 0C86.7204 0 85.8325 0.887918 85.8325 1.98322C85.8325 3.07852 86.7204 3.96644 87.8157 3.96644Z" fill="#D0DAEF"/>
<path d="M15.9949 15.2282C17.0902 15.2282 17.9782 14.3402 17.9782 13.2449C17.9782 12.1496 17.0902 11.2617 15.9949 11.2617C14.8996 11.2617 14.0117 12.1496 14.0117 13.2449C14.0117 14.3402 14.8996 15.2282 15.9949 15.2282Z" fill="#D0DAEF"/>
<path d="M3.88332 53.4756C5.91745 53.4756 7.56644 51.8266 7.56644 49.7925C7.56644 47.7584 5.91745 46.1094 3.88332 46.1094C1.84919 46.1094 0.200195 47.7584 0.200195 49.7925C0.200195 51.8266 1.84919 53.4756 3.88332 53.4756Z" fill="#D0DAEF"/>
<path d="M82.871 18.2613V57.5041C82.871 59.1375 81.5635 60.4314 79.9608 60.4314H20.8502C19.2475 60.4314 17.9189 59.1162 17.9189 57.5041V18.2613C17.9189 16.6491 19.2264 15.334 20.8502 15.334H79.9608C81.5635 15.334 82.871 16.6491 82.871 18.2613Z" fill="white" stroke="#90ABC6" stroke-width="2" stroke-miterlimit="10" stroke-linejoin="round"/>
<path d="M82.871 18.2613V22.6522H17.9189V18.2613C17.9189 16.6491 19.2264 15.334 20.8502 15.334H79.9608C81.5635 15.334 82.871 16.6491 82.871 18.2613Z" fill="#90ABC6"/>
<path d="M22.0107 20.086C22.6163 20.086 23.1072 19.5921 23.1072 18.9829C23.1072 18.3737 22.6163 17.8799 22.0107 17.8799C21.405 17.8799 20.9141 18.3737 20.9141 18.9829C20.9141 19.5921 21.405 20.086 22.0107 20.086Z" fill="#E5ECF5"/>
<path d="M25.5946 20.086C26.2003 20.086 26.6912 19.5921 26.6912 18.9829C26.6912 18.3737 26.2003 17.8799 25.5946 17.8799C24.989 17.8799 24.498 18.3737 24.498 18.9829C24.498 19.5921 24.989 20.086 25.5946 20.086Z" fill="#E5ECF5"/>
<path d="M29.1591 20.086C29.7647 20.086 30.2557 19.5921 30.2557 18.9829C30.2557 18.3737 29.7647 17.8799 29.1591 17.8799C28.5535 17.8799 28.0625 18.3737 28.0625 18.9829C28.0625 19.5921 28.5535 20.086 29.1591 20.086Z" fill="#E5ECF5"/>
<path d="M31.4785 49.3799H69.311" stroke="#E5ECF5" stroke-width="2" stroke-miterlimit="10" stroke-linecap="round" stroke-linejoin="round"/>
<path d="M37.4473 53.4316H63.3437" stroke="#E5ECF5" stroke-width="2" stroke-miterlimit="10" stroke-linecap="round" stroke-linejoin="round"/>
<path d="M42.3428 36.477L47.8911 42.0253L58.9877 30.9287" stroke="#3A6B97" stroke-width="4" stroke-miterlimit="10" stroke-linecap="round" stroke-linejoin="round"/>
<path d="M80.0002 69.098L65.8721 54.9811L69.1109 51.7422L83.2279 65.8703L80.0002 69.098Z" fill="#D0DAEF" stroke="#3A6B97" stroke-width="1.5" stroke-miterlimit="10"/>
<path d="M84.9114 74.064L74.0779 63.2306C73.1733 62.3259 73.1733 60.8517 74.0779 59.947C74.9825 59.0424 76.4568 59.0424 77.3614 59.947L88.1949 70.7805C89.0995 71.6851 89.0995 73.1594 88.1949 74.064C87.2902 74.9687 85.816 74.9687 84.9114 74.064Z" fill="#D6DCE8" stroke="#AAB2C5" stroke-width="2" stroke-miterlimit="10"/>
<path d="M84.1407 74.7569L70.2024 60.8186C69.8785 60.4947 69.8785 59.9698 70.2024 59.6348L73.7651 56.072C74.089 55.7481 74.614 55.7481 74.949 56.072L88.8873 70.0103C89.2112 70.3342 89.2112 70.8591 88.8873 71.1942L85.3245 74.7569C84.9895 75.0808 84.4646 75.0808 84.1407 74.7569Z" fill="#D0DAEF" stroke="#3A6B97" stroke-width="1.5" stroke-miterlimit="10"/>
<path d="M49.8783 9.49121C35.0912 9.49121 23.1074 21.475 23.1074 36.2621C23.1074 51.0381 35.0912 63.033 49.8672 63.033C64.6543 63.033 76.6381 51.0492 76.6381 36.2621C76.6381 21.475 64.6543 9.49121 49.8783 9.49121ZM49.8783 58.0742C38.0062 58.0742 28.3901 48.3018 28.3901 36.251C28.3901 24.2001 38.0062 14.4389 49.8783 14.4389C61.7505 14.4389 71.3665 24.2113 71.3665 36.2621C71.3665 48.3129 61.7393 58.0742 49.8783 58.0742Z" fill="#D0DAEF" stroke="#3A6B97" stroke-width="1.5" stroke-miterlimit="10"/>
</g>
</svg>
