<svg width="90" height="76" viewBox="0 0 90 76" fill="none" xmlns="http://www.w3.org/2000/svg">
<g opacity="0.5">
<path d="M49.958 74.3378C69.6503 74.3378 85.6151 58.373 85.6151 38.6103C85.6151 18.8477 69.58 2.88281 49.958 2.88281C30.2656 2.88281 14.3008 18.8477 14.3008 38.6103C14.3008 58.373 30.2656 74.3378 49.958 74.3378Z" fill="#E5ECF5" stroke="#90ABC6" stroke-width="2" stroke-miterlimit="10"/>
<path d="M83.2947 15.1918C84.8872 15.1918 86.1782 13.9008 86.1782 12.3083C86.1782 10.7158 84.8872 9.4248 83.2947 9.4248C81.7021 9.4248 80.4111 10.7158 80.4111 12.3083C80.4111 13.9008 81.7021 15.1918 83.2947 15.1918Z" fill="#D0DAEF"/>
<path d="M87.5142 3.93847C88.6017 3.93847 89.4834 3.05681 89.4834 1.96923C89.4834 0.881655 88.6017 0 87.5142 0C86.4266 0 85.5449 0.881655 85.5449 1.96923C85.5449 3.05681 86.4266 3.93847 87.5142 3.93847Z" fill="#D0DAEF"/>
<path d="M16.2007 15.1211C17.2883 15.1211 18.1699 14.2394 18.1699 13.1519C18.1699 12.0643 17.2883 11.1826 16.2007 11.1826C15.1131 11.1826 14.2314 12.0643 14.2314 13.1519C14.2314 14.2394 15.1131 15.1211 16.2007 15.1211Z" fill="#D0DAEF"/>
<path d="M4.17375 53.0985C6.19353 53.0985 7.83089 51.4611 7.83089 49.4413C7.83089 47.4215 6.19353 45.7842 4.17375 45.7842C2.15396 45.7842 0.516602 47.4215 0.516602 49.4413C0.516602 51.4611 2.15396 53.0985 4.17375 53.0985Z" fill="#D0DAEF"/>
<path d="M60.2979 19.6226L71.0584 58.304C71.41 59.6402 70.6364 60.9765 69.3001 61.3281L31.3924 71.3853C30.0561 71.7369 28.7199 70.9633 28.3682 69.6271L15.1462 19.6929C14.7946 18.3567 15.5682 17.0204 16.9045 16.6688L44.3331 9.4248L60.2979 19.6226Z" fill="white" stroke="#90ABC6" stroke-width="2" stroke-miterlimit="10"/>
<path d="M59.7347 44.0975L39.2688 49.5129L37.0182 50.0755L30.1962 51.9041C29.9149 51.9744 29.7039 52.326 29.8446 52.6777C29.9149 53.0293 30.2666 53.2403 30.5479 53.17L37.3699 51.3414L39.6204 50.7788L60.0864 45.3634C60.3677 45.2931 60.5787 44.9414 60.438 44.5898C60.3677 44.2381 60.016 44.0271 59.7347 44.0975Z" fill="#E5ECF5"/>
<path d="M58.3987 39.3146L50.8031 41.2839L48.2009 41.9872L29.0009 47.1212C28.7196 47.1916 28.5086 47.5432 28.6493 47.8949C28.7196 48.2465 29.0712 48.4575 29.3526 48.3872L48.6229 43.2531L51.2251 42.5498L58.8207 40.5806C59.102 40.5102 59.313 40.1586 59.1724 39.8069C59.0317 39.5256 58.6801 39.2443 58.3987 39.3146Z" fill="#E5ECF5"/>
<path d="M57.2728 34.4628L55.3036 34.9552L53.3344 35.4475L27.664 42.2694C27.3827 42.3398 27.1717 42.6914 27.3124 43.0431C27.3827 43.3947 27.7343 43.6057 28.0156 43.5354L53.686 36.7134L55.8662 36.1508L57.6245 35.6585C57.9058 35.5881 58.1168 35.2365 57.9761 34.8848C57.9058 34.6035 57.6245 34.3925 57.2728 34.4628Z" fill="#E5ECF5"/>
<path d="M45.3876 59.3585L43.981 59.7102C43.6997 59.7805 43.348 59.5695 43.2777 59.2179C43.2074 58.8662 43.348 58.5146 43.6293 58.4442L45.0359 58.0926C45.3173 58.0222 45.6689 58.2332 45.7392 58.5849C45.8096 59.0069 45.6689 59.2882 45.3876 59.3585Z" fill="#E5ECF5"/>
<path d="M41.0972 60.4845L33.0093 62.5944C32.728 62.6647 32.3763 62.4537 32.306 62.1021C32.2357 61.7504 32.3763 61.3988 32.6577 61.3284L40.7456 59.2186C41.0269 59.1482 41.3785 59.3592 41.4489 59.7109C41.5895 60.0625 41.4489 60.4142 41.0972 60.4845Z" fill="#E5ECF5"/>
<path d="M56.2885 29.6096L49.8885 31.2975L48.3412 31.7195L26.4687 37.4865C26.1874 37.5568 25.9764 37.9085 26.117 38.2601C26.1874 38.6118 26.539 38.8228 26.8203 38.7524L48.6226 33.0557L50.1698 32.6337L56.4995 30.9458C56.8511 30.8755 56.9918 30.5239 56.9215 30.1019C56.9215 29.8206 56.5698 29.5392 56.2885 29.6096Z" fill="#E5ECF5"/>
<path d="M41.1673 18.9891L23.0222 23.7715C22.6002 23.9122 22.1782 23.6309 22.0376 23.2089C21.8969 22.7869 22.1782 22.3649 22.6002 22.2243L40.7453 17.4419C41.1673 17.3012 41.5892 17.5825 41.7299 18.0045C41.8706 18.4265 41.5892 18.8485 41.1673 18.9891Z" fill="#E5ECF5"/>
<path d="M31.1811 26.3036L24.2185 28.1321C23.7965 28.2728 23.3745 27.9915 23.2339 27.5695C23.0932 27.1475 23.3745 26.7255 23.7965 26.5849L30.6888 24.7563C31.1108 24.6157 31.5328 24.897 31.6734 25.319C31.8141 25.7409 31.5328 26.1629 31.1811 26.3036Z" fill="#E5ECF5"/>
<path d="M44.333 9.4248L47.1462 20.1149C47.5682 21.5919 49.1858 22.5061 50.6627 22.0842L60.2979 19.6226" fill="#90ABC6"/>
<path d="M88.7105 30.5229L82.2401 70.1889C82.0292 71.5251 80.6929 72.4394 79.3566 72.1581L40.8159 65.4064C39.4797 65.1954 38.5654 63.8592 38.7764 62.5229L47.7082 11.6745C47.9192 10.3382 49.2555 9.42396 50.5918 9.70528L78.583 14.6284L88.7105 30.5229Z" fill="white" stroke="#90ABC6" stroke-width="2" stroke-miterlimit="10"/>
<path d="M77.9508 52.5366L57.1332 48.8794L54.8827 48.4574L47.92 47.2618C47.6387 47.1915 47.2871 47.4728 47.2871 47.8245C47.2167 48.1761 47.4277 48.5278 47.709 48.5981L54.6717 49.7937L56.9222 50.2157L77.7398 53.8728C78.0212 53.9432 78.3728 53.6618 78.3728 53.3102C78.4431 52.9585 78.3025 52.6069 77.9508 52.5366Z" fill="#E5ECF5"/>
<path d="M78.7936 47.683L71.0573 46.3468L68.4551 45.8545L48.8331 42.4083C48.5518 42.338 48.2002 42.6193 48.2002 42.9709C48.1298 43.3226 48.3408 43.6742 48.6221 43.7446L68.2441 47.1907L70.8463 47.683L78.5826 49.0193C78.8639 49.0896 79.2156 48.8083 79.2156 48.4567C79.2859 48.105 79.0749 47.7534 78.7936 47.683Z" fill="#E5ECF5"/>
<path d="M79.778 42.7602L77.7385 42.4085L75.6989 42.0569L49.5362 37.4855C49.2549 37.4151 48.9033 37.6964 48.9033 38.0481C48.8329 38.3997 49.0439 38.7514 49.3253 38.8217L75.4879 43.3932L77.7385 43.8151L79.4967 44.0965C79.778 44.1668 80.1297 43.8855 80.1297 43.5338C80.2703 43.1822 80.1297 42.8305 79.778 42.7602Z" fill="#E5ECF5"/>
<path d="M58.5375 60.4126L57.1309 60.2016C56.8496 60.1313 56.6386 59.7796 56.7089 59.428C56.7793 59.0763 57.0606 58.795 57.3419 58.8653L58.7485 59.0763C59.0298 59.1467 59.2408 59.4983 59.1705 59.85C59.1002 60.2719 58.8188 60.4126 58.5375 60.4126Z" fill="#E5ECF5"/>
<path d="M54.2492 59.6395L46.0206 58.2329C45.7393 58.1625 45.5283 57.8109 45.5986 57.4592C45.6689 57.1076 45.9502 56.8263 46.2316 56.8966L54.4601 58.3032C54.7415 58.3735 54.9525 58.7252 54.8821 59.0768C54.8118 59.4988 54.5305 59.7098 54.2492 59.6395Z" fill="#E5ECF5"/>
<path d="M80.9031 37.978L74.3624 36.8527L72.7448 36.5714L50.4503 32.6329C50.169 32.5626 49.8173 32.8439 49.8173 33.1956C49.747 33.5472 49.958 33.8989 50.2393 33.9692L72.5338 37.9076L74.1514 38.189L80.6218 39.3142C80.9734 39.3846 81.2547 39.1033 81.3251 38.7516C81.3954 38.4 81.1844 38.0483 80.9031 37.978Z" fill="#E5ECF5"/>
<path d="M71.6903 22.0129L53.1935 18.7778C52.7716 18.7074 52.4902 18.2854 52.5606 17.8635C52.6309 17.4415 53.0529 17.1602 53.4749 17.2305L71.9716 20.4657C72.3936 20.536 72.6749 20.958 72.6045 21.38C72.5342 21.7316 72.1122 22.0832 71.6903 22.0129Z" fill="#E5ECF5"/>
<path d="M59.5234 24.404L52.4201 23.1381C51.9981 23.0678 51.7168 22.6458 51.7871 22.2238C51.8575 21.8018 52.2794 21.5205 52.7014 21.5908L59.7344 22.8568C60.1564 22.9271 60.4377 23.3491 60.3674 23.7711C60.297 24.193 59.8751 24.4744 59.5234 24.404Z" fill="#E5ECF5"/>
<path d="M78.5125 14.6279L76.6136 25.529C76.3322 27.0763 77.4575 28.5532 79.0048 28.8345L88.7103 30.5225" fill="#90ABC6"/>
<path d="M62.1962 66.4618C70.858 66.4618 77.8798 59.44 77.8798 50.7783C77.8798 42.1165 70.858 35.0947 62.1962 35.0947C53.5344 35.0947 46.5127 42.1165 46.5127 50.7783C46.5127 59.44 53.5344 66.4618 62.1962 66.4618Z" fill="white"/>
<path d="M84.9411 74.9996C84.3324 74.9996 83.7236 74.756 83.2366 74.2082L73.0702 64.0417L72.7049 64.2852C69.4176 66.7203 65.5823 67.9987 61.6862 67.9987C56.9987 67.9987 52.3112 66.1115 48.8412 62.8242C45.1886 59.3542 43.1797 54.6667 43.1797 49.5531C43.1797 39.3867 51.4589 31.1074 61.6253 31.1074C68.5653 31.1074 74.653 34.76 77.9403 40.9695C81.1668 47.118 80.7406 54.3015 76.7836 60.0848L76.5401 60.45L86.7674 70.6773C87.8023 71.7122 87.5588 72.7471 87.3762 73.295C86.8892 74.269 85.9152 74.9996 84.9411 74.9996ZM61.6253 36.1602C54.1984 36.1602 48.2325 42.187 48.2325 49.5531C48.2325 57.9541 55.1115 63.0068 61.808 63.0068C65.8867 63.0068 69.6002 61.1805 72.2179 57.8932C75.4444 53.8753 75.9922 48.4573 73.7398 43.7698C71.4265 39.0823 66.7999 36.1602 61.6253 36.1602Z" fill="#D0DAEF" stroke="#3A6B97" stroke-width="1.5" stroke-miterlimit="10"/>
<path d="M60.7196 53.3103C60.6493 53.029 60.6493 52.7477 60.6493 52.3961C60.6493 51.2004 61.1416 50.1455 62.4076 49.2312L63.4625 48.4576C64.0955 47.9653 64.3768 47.4026 64.3768 46.6993C64.3768 45.7147 63.6735 44.7301 62.1966 44.7301C60.6493 44.7301 59.946 45.996 59.946 47.1917C59.946 47.473 59.946 47.684 60.0163 47.8949L57.2032 47.8246C57.1328 47.5433 57.0625 47.1917 57.0625 46.84C57.0625 44.4488 58.8207 42.1982 62.1262 42.1982C65.5021 42.1982 67.3306 44.3785 67.3306 46.5587C67.3306 48.3169 66.4164 49.5125 65.1504 50.4268L64.2361 51.0598C63.4625 51.6224 63.0405 52.3257 63.0405 53.1697V53.3103H60.7196ZM61.9153 54.7169C62.8999 54.7169 63.6735 55.4906 63.6735 56.4752C63.6735 57.4598 62.8999 58.2334 61.9153 58.2334C60.9306 58.2334 60.157 57.4598 60.157 56.4752C60.2273 55.5609 60.9306 54.7169 61.9153 54.7169Z" fill="#3A6B97"/>
</g>
</svg>
