<svg width="110" height="77" viewBox="0 0 110 77" fill="none" xmlns="http://www.w3.org/2000/svg">
<path d="M53.0819 76.0003C73.4243 76.0003 89.9997 59.4934 89.9997 39.2194C89.9312 18.877 73.4243 2.37012 53.0819 2.37012C32.6709 2.37012 16.1641 18.877 16.1641 39.1509C16.1641 59.4934 32.6709 76.0003 53.0819 76.0003Z" fill="#E5ECF5" stroke="#90ABC6" stroke-width="2" stroke-miterlimit="10"/>
<path d="M108.767 64.5036C108.767 70.2903 104.087 74.9699 98.2503 74.9699C98.1497 74.9699 97.2943 74.9699 91.0044 74.9699C86.6266 74.9699 79.6323 74.9699 68.4614 74.9699H63.1276C56.1333 75.1209 50.5479 69.5355 50.5479 62.7927C50.5479 55.9996 56.1836 50.3639 63.2786 50.7161C69.3672 31.6955 97.244 34.3624 99.609 54.0372C104.842 54.6913 108.767 59.1194 108.767 64.5036Z" fill="white" stroke="#90ABC6" stroke-width="2" stroke-miterlimit="10"/>
<path d="M99.4582 54.0874C99.0556 54.0371 98.6531 54.0371 98.2505 54.0371C96.1874 54.0371 94.225 54.6409 92.5645 55.6976" fill="white"/>
<path d="M99.4582 54.0874C99.0556 54.0371 98.6531 54.0371 98.2505 54.0371C96.1874 54.0371 94.225 54.6409 92.5645 55.6976" stroke="#90ABC6" stroke-width="2" stroke-miterlimit="10" stroke-linecap="round"/>
<path d="M63.2788 50.7158C62.675 52.5273 62.373 54.4394 62.373 56.4522C62.373 57.2573 62.4234 58.0121 62.524 58.7669" fill="white"/>
<path d="M63.2788 50.7158C62.675 52.5273 62.373 54.4394 62.373 56.4522C62.373 57.2573 62.4234 58.0121 62.524 58.7669" stroke="#90ABC6" stroke-width="2" stroke-miterlimit="10" stroke-linecap="round" stroke-linejoin="round"/>
<path d="M84.4682 27.2152C84.4682 30.5186 81.7967 33.1902 78.4645 33.1902C78.4071 33.1902 77.9187 33.1902 74.328 33.1902C71.8289 33.1902 67.836 33.1902 61.4588 33.1902H58.4139C54.421 33.2763 51.2324 30.0878 51.2324 26.2385C51.2324 22.3605 54.4497 19.1432 58.5001 19.3443C61.9759 8.48591 77.89 10.0084 79.2401 21.2402C82.2276 21.6136 84.4682 24.1415 84.4682 27.2152Z" fill="white" stroke="#90ABC6" stroke-width="2" stroke-miterlimit="10"/>
<path d="M79.1542 21.269C78.9244 21.2402 78.6946 21.2402 78.4648 21.2402C77.287 21.2402 76.1667 21.5849 75.2188 22.1882" fill="white"/>
<path d="M79.1542 21.269C78.9244 21.2402 78.6946 21.2402 78.4648 21.2402C77.287 21.2402 76.1667 21.5849 75.2188 22.1882" stroke="#90ABC6" stroke-width="2" stroke-miterlimit="10" stroke-linecap="round"/>
<path d="M58.4995 19.3438C58.1548 20.3779 57.9824 21.4695 57.9824 22.6185C57.9824 23.0781 58.0111 23.509 58.0686 23.9399" fill="white"/>
<path d="M58.4995 19.3438C58.1548 20.3779 57.9824 21.4695 57.9824 22.6185C57.9824 23.0781 58.0111 23.509 58.0686 23.9399" stroke="#90ABC6" stroke-width="2" stroke-miterlimit="10" stroke-linecap="round" stroke-linejoin="round"/>
<path d="M52.6943 24.6225C52.6943 29.7375 48.5578 33.8741 43.3983 33.8741C43.3093 33.8741 42.5532 33.8741 36.9933 33.8741C33.1237 33.8741 26.9411 33.8741 17.0669 33.8741H12.3521C6.16956 34.0075 1.23242 29.0704 1.23242 23.1102C1.23242 17.1056 6.21404 12.124 12.4855 12.4353C17.8675 -4.37766 42.5087 -2.02028 44.5992 15.3709C49.225 15.9491 52.6943 19.8633 52.6943 24.6225Z" fill="white" stroke="#90ABC6" stroke-width="2" stroke-miterlimit="10"/>
<path d="M44.4666 15.4156C44.1108 15.3711 43.755 15.3711 43.3991 15.3711C41.5755 15.3711 39.8408 15.9048 38.373 16.8389" fill="white"/>
<path d="M44.4666 15.4156C44.1108 15.3711 43.755 15.3711 43.3991 15.3711C41.5755 15.3711 39.8408 15.9048 38.373 16.8389" stroke="#90ABC6" stroke-width="2" stroke-miterlimit="10" stroke-linecap="round"/>
<path d="M12.4852 12.4355C11.9514 14.0368 11.6846 15.727 11.6846 17.5061C11.6846 18.2178 11.729 18.885 11.818 19.5521" fill="white"/>
<path d="M12.4852 12.4355C11.9514 14.0368 11.6846 15.727 11.6846 17.5061C11.6846 18.2178 11.729 18.885 11.818 19.5521" stroke="#90ABC6" stroke-width="2" stroke-miterlimit="10" stroke-linecap="round" stroke-linejoin="round"/>
<path d="M90.8893 26.342C92.4402 26.342 93.6975 25.0847 93.6975 23.5338C93.6975 21.9829 92.4402 20.7256 90.8893 20.7256C89.3383 20.7256 88.0811 21.9829 88.0811 23.5338C88.0811 25.0847 89.3383 26.342 90.8893 26.342Z" fill="#D0DAEF"/>
<path d="M94.9998 15.3835C96.059 15.3835 96.9176 14.5248 96.9176 13.4657C96.9176 12.4065 96.059 11.5479 94.9998 11.5479C93.9407 11.5479 93.082 12.4065 93.082 13.4657C93.082 14.5248 93.9407 15.3835 94.9998 15.3835Z" fill="#D0DAEF"/>
<path d="M13.0138 63.8772C14.9808 63.8772 16.5754 62.2826 16.5754 60.3155C16.5754 58.3485 14.9808 56.7539 13.0138 56.7539C11.0468 56.7539 9.45215 58.3485 9.45215 60.3155C9.45215 62.2826 11.0468 63.8772 13.0138 63.8772Z" fill="#D0DAEF"/>
<path d="M73.1747 25.9619L73.6525 64.4239C73.6525 65.7378 72.5775 66.7531 71.2635 66.7531H33.7571C32.4432 66.7531 31.3682 65.6781 31.3682 64.4239V14.9728C31.3682 13.6589 32.4432 12.6436 33.7571 12.6436H60.9314L73.1747 25.9619Z" fill="white" stroke="#90ABC6" stroke-width="2" stroke-miterlimit="10"/>
<path d="M49.3065 58.5345H48.538C48.371 58.5345 48.2373 58.3789 48.2373 58.1921C48.2373 58.0053 48.371 57.8496 48.538 57.8496H49.3065C49.4735 57.8496 49.6072 58.0053 49.6072 58.1921C49.6072 58.41 49.4735 58.5345 49.3065 58.5345Z" fill="#E5ECF5"/>
<path d="M45.0108 58.5345H37.765C37.4946 58.5345 37.2783 58.3789 37.2783 58.1921C37.2783 58.0053 37.4946 57.8496 37.765 57.8496H45.0108C45.2812 57.8496 45.4975 58.0053 45.4975 58.1921C45.4975 58.41 45.2812 58.5345 45.0108 58.5345Z" fill="#E5ECF5"/>
<path d="M55.694 20.863H38.0408C37.6302 20.863 37.2783 20.5469 37.2783 20.1781C37.2783 19.8093 37.6302 19.4932 38.0408 19.4932H55.694C56.1045 19.4932 56.4564 19.8093 56.4564 20.1781C56.4564 20.5469 56.1045 20.863 55.694 20.863Z" fill="#E5ECF5"/>
<path d="M44.798 24.9724H38.0361C37.6281 24.9724 37.2783 24.6563 37.2783 24.2875C37.2783 23.9187 37.6281 23.6025 38.0361 23.6025H44.7397C45.1477 23.6025 45.4975 23.9187 45.4975 24.2875C45.4975 24.6563 45.1477 24.9724 44.798 24.9724Z" fill="#E5ECF5"/>
<path d="M61.0771 12.6436V23.5779C61.0771 25.1136 62.4002 26.3422 63.9037 26.3422L73.1503 25.9997" fill="#90ABC6"/>
<path d="M46.3674 32.1739C48.0999 31.0633 50.1433 30.4414 52.32 30.4414C58.2727 30.4414 63.1147 35.239 63.1147 41.1917C63.1147 47.1443 58.2727 51.9419 52.32 51.9419C46.3674 51.9419 41.5254 47.1443 41.5254 41.1917C41.4365 37.4157 43.3911 34.1285 46.3674 32.1739Z" fill="#D0DAEF" stroke="#3A6B97" stroke-width="1.5" stroke-miterlimit="10"/>
<path d="M53.9569 41.6631L53.9682 41.6744L53.9799 41.6851C54.6233 42.2761 55.6727 42.3197 56.3166 41.6543C56.931 41.0194 56.931 39.9557 56.3166 39.3208L53.5319 36.4431C53.3351 36.1741 53.0533 36.043 52.8771 35.9799C52.6596 35.9021 52.4284 35.8662 52.2395 35.8662C51.9599 35.8662 51.7086 35.971 51.5518 36.0521C51.3846 36.1384 51.2087 36.2588 51.0761 36.3958L51.6151 36.9173L51.0761 36.3958L48.2944 39.2703C48.0672 39.4436 47.9365 39.6721 47.8635 39.8566C47.779 40.0699 47.7432 40.2935 47.7432 40.4876C47.7432 40.9246 47.9224 41.3204 48.2456 41.6543L48.2609 41.6702L48.2772 41.6851C48.9189 42.2746 49.9647 42.3195 50.609 41.6594L50.6153 41.6531V44.574C50.6153 45.481 51.3444 46.2703 52.2811 46.2703C53.2178 46.2703 53.9469 45.481 53.9469 44.574V41.6531L53.9569 41.6631Z" fill="white" stroke="#3A6B97" stroke-width="1.5"/>
<path d="M42.0024 48.4476C42.0024 51.7511 39.3309 54.4226 35.9987 54.4226C35.9413 54.4226 35.4529 54.4226 31.8622 54.4226C29.363 54.4226 25.3701 54.4226 18.993 54.4226H15.9481C11.9552 54.5088 8.7666 51.3202 8.7666 47.4709C8.7666 43.5929 11.9839 40.3756 16.0342 40.5767C19.5101 29.7183 35.4242 31.2408 36.7743 42.4726C39.7618 42.8461 42.0024 45.3739 42.0024 48.4476Z" fill="white" stroke="#90ABC6" stroke-width="2" stroke-miterlimit="10"/>
<path d="M36.6884 42.5014C36.4586 42.4727 36.2288 42.4727 35.999 42.4727C34.8212 42.4727 33.7009 42.8174 32.7529 43.4206" fill="white"/>
<path d="M36.6884 42.5014C36.4586 42.4727 36.2288 42.4727 35.999 42.4727C34.8212 42.4727 33.7009 42.8174 32.7529 43.4206" stroke="#90ABC6" stroke-width="2" stroke-miterlimit="10" stroke-linecap="round"/>
<path d="M16.0337 40.5762C15.689 41.6103 15.5166 42.7019 15.5166 43.8509C15.5166 44.3105 15.5453 44.7414 15.6028 45.1723" fill="white"/>
<path d="M16.0337 40.5762C15.689 41.6103 15.5166 42.7019 15.5166 43.8509C15.5166 44.3105 15.5453 44.7414 15.6028 45.1723" stroke="#90ABC6" stroke-width="2" stroke-miterlimit="10" stroke-linecap="round" stroke-linejoin="round"/>
</svg>
