<svg width="90" height="77" viewBox="0 0 90 77" fill="none" xmlns="http://www.w3.org/2000/svg">
<path d="M45.174 76C65.8949 76 82.7786 59.186 82.7786 38.5349C82.7089 17.814 65.8949 1 45.174 1C24.3833 1 7.56934 17.814 7.56934 38.4651C7.56934 59.186 24.3833 76 45.174 76Z" fill="#E5ECF5" stroke="#90ABC6" stroke-width="2" stroke-miterlimit="10"/>
<path d="M85.011 43.2788C85.011 51.302 78.5226 57.7904 70.4296 57.7904C70.29 57.7904 69.104 57.7904 60.3831 57.7904C54.3133 57.7904 44.6156 57.7904 29.1272 57.7904H21.7319C12.0342 57.9997 4.29004 50.2555 4.29004 40.9067C4.29004 31.4881 12.104 23.6741 21.9412 24.1625C30.3831 -2.20957 69.0342 1.4881 72.3133 28.7672C79.5691 29.6741 85.011 35.8137 85.011 43.2788Z" fill="white" stroke="#90ABC6" stroke-width="2" stroke-miterlimit="10"/>
<path d="M72.104 28.8373C71.5459 28.7676 70.9878 28.7676 70.4296 28.7676C67.5692 28.7676 64.8482 29.6048 62.5459 31.0699" fill="white"/>
<path d="M72.104 28.8373C71.5459 28.7676 70.9878 28.7676 70.4296 28.7676C67.5692 28.7676 64.8482 29.6048 62.5459 31.0699" stroke="#90ABC6" stroke-width="2" stroke-miterlimit="10" stroke-linecap="round"/>
<path d="M21.9414 24.1631C21.1042 26.6747 20.6855 29.3259 20.6855 32.1166C20.6855 33.2329 20.7553 34.2794 20.8948 35.3259" fill="white"/>
<path d="M21.9414 24.1631C21.1042 26.6747 20.6855 29.3259 20.6855 32.1166C20.6855 33.2329 20.7553 34.2794 20.8948 35.3259" stroke="#90ABC6" stroke-width="2" stroke-miterlimit="10" stroke-linecap="round" stroke-linejoin="round"/>
<path d="M35.825 42.0237C38.546 40.2795 41.7553 39.3027 45.1739 39.3027C54.5227 39.3027 62.1274 46.8376 62.1274 56.1865C62.1274 65.5353 54.5227 73.0702 45.1739 73.0702C35.825 73.0702 28.2204 65.5353 28.2204 56.1865C28.0809 50.2562 31.1506 45.0934 35.825 42.0237Z" fill="#D0DAEF" stroke="#3A6B97" stroke-width="1.5" stroke-miterlimit="10"/>
<path d="M48.2808 57.0735L48.2922 57.0846L48.3041 57.0951C49.1982 57.8898 50.6285 57.9319 51.4955 57.0649C52.3465 56.2139 52.3465 54.7622 51.4955 53.9112L46.8051 49.2208C46.5884 48.913 46.2825 48.7276 45.9959 48.6201C45.6817 48.5023 45.3439 48.459 45.0349 48.459C44.6906 48.459 44.3582 48.5867 44.1239 48.7039C43.8803 48.8257 43.6339 48.9913 43.4581 49.167L38.7677 53.8574C38.4651 54.0703 38.2818 54.3677 38.1751 54.6285C38.0569 54.9174 38.0059 55.224 38.0059 55.4881C38.0059 56.0672 38.2483 56.5993 38.7139 57.0649L38.7295 57.0805L38.746 57.0951C39.6384 57.8884 41.065 57.9318 41.9325 57.0697L42.8198 56.211V62.116C42.8198 63.3674 43.8533 64.4008 45.1047 64.4008C46.3561 64.4008 47.3896 63.3674 47.3896 62.116V56.211L48.2808 57.0735Z" fill="white" stroke="#3A6B97" stroke-width="1.5"/>
<path d="M83.4054 25.4182C84.9852 25.4182 86.2658 24.1375 86.2658 22.5577C86.2658 20.9779 84.9852 19.6973 83.4054 19.6973C81.8256 19.6973 80.5449 20.9779 80.5449 22.5577C80.5449 24.1375 81.8256 25.4182 83.4054 25.4182Z" fill="#D0DAEF"/>
<path d="M87.5931 14.2566C88.672 14.2566 89.5466 13.382 89.5466 12.3031C89.5466 11.2242 88.672 10.3496 87.5931 10.3496C86.5143 10.3496 85.6396 11.2242 85.6396 12.3031C85.6396 13.382 86.5143 14.2566 87.5931 14.2566Z" fill="#D0DAEF"/>
<path d="M8.47693 20.6746C9.55581 20.6746 10.4304 19.7999 10.4304 18.7211C10.4304 17.6422 9.55581 16.7676 8.47693 16.7676C7.39804 16.7676 6.52344 17.6422 6.52344 18.7211C6.52344 19.7999 7.39804 20.6746 8.47693 20.6746Z" fill="#D0DAEF"/>
<path d="M4.08103 63.6513C6.08467 63.6513 7.70894 62.0271 7.70894 60.0234C7.70894 58.0198 6.08467 56.3955 4.08103 56.3955C2.07739 56.3955 0.453125 58.0198 0.453125 60.0234C0.453125 62.0271 2.07739 63.6513 4.08103 63.6513Z" fill="#D0DAEF"/>
</svg>
