<svg width="24" height="24" viewBox="0 0 24 24" fill="none" xmlns="http://www.w3.org/2000/svg">
<path fill-rule="evenodd" clip-rule="evenodd" d="M20.041 4.24251C19.601 3.82607 18.9125 3.82532 18.4716 4.2408L12.5 9.86811L6.52845 4.2408C6.08755 3.82532 5.39905 3.82607 4.95906 4.24251L4.89363 4.30444C4.41658 4.75595 4.4174 5.51573 4.89544 5.96621L10.768 11.5002L4.89544 17.0343C4.4174 17.4848 4.41658 18.2445 4.89364 18.696L4.95906 18.758C5.39906 19.1744 6.08756 19.1752 6.52845 18.7597L12.5 13.1324L18.4716 18.7597C18.9125 19.1752 19.601 19.1744 20.041 18.758L20.1064 18.696C20.5835 18.2445 20.5826 17.4848 20.1046 17.0343L14.232 11.5002L20.1046 5.96621C20.5826 5.51573 20.5835 4.75595 20.1064 4.30443L20.041 4.24251Z" fill="#0A1629"/>
</svg>
