<svg width="100" height="83" viewBox="0 0 100 83" fill="none" xmlns="http://www.w3.org/2000/svg">
<path d="M96.9197 22.5698C98.621 22.5698 100 21.1906 100 19.4894C100 17.7881 98.621 16.409 96.9197 16.409C95.2185 16.409 93.8394 17.7881 93.8394 19.4894C93.8394 21.1906 95.2185 22.5698 96.9197 22.5698Z" fill="#F1F3F9"/>
<path d="M93.839 12.5776C95.0009 12.5776 95.9427 11.6358 95.9427 10.4739C95.9427 9.31209 95.0009 8.37024 93.839 8.37024C92.6772 8.37024 91.7354 9.31209 91.7354 10.4739C91.7354 11.6358 92.6772 12.5776 93.839 12.5776Z" fill="#F1F3F9"/>
<path d="M8.63981 19.4897C9.80165 19.4897 10.7435 18.5478 10.7435 17.386C10.7435 16.2241 9.80165 15.2823 8.63981 15.2823C7.47798 15.2823 6.53613 16.2241 6.53613 17.386C6.53613 18.5478 7.47798 19.4897 8.63981 19.4897Z" fill="#F1F3F9"/>
<path d="M3.90684 65.771C6.06453 65.771 7.81368 64.0218 7.81368 61.8641C7.81368 59.7064 6.06453 57.9573 3.90684 57.9573C1.74915 57.9573 0 59.7064 0 61.8641C0 64.0218 1.74915 65.771 3.90684 65.771Z" fill="#F1F3F9"/>
<path d="M94.5476 32.0317V72.7084C94.5476 72.8761 94.5476 72.96 94.5476 73.1277C94.4638 75.4761 93.3735 77.4889 91.6961 78.9147C90.2703 80.1728 88.3413 81.0115 86.2446 81.0115H20.5748C19.149 81.0115 17.8071 80.676 16.6329 80.005C16.1297 79.7534 15.6265 79.4179 15.2071 78.9986C14.2846 78.2438 13.4459 77.1535 13.0265 75.9793C12.6911 75.1406 12.4395 74.218 12.4395 73.2955V32.0317C12.4395 32.0317 15.8781 29.0963 20.8264 25.0705C25.9424 20.7932 32.652 15.2578 38.5229 10.3934C41.8776 7.54182 41.5421 7.87729 46.7421 3.51608C50.6839 0.161306 56.4709 0.161306 60.4128 3.51608C61.4192 4.35478 62.5095 5.36121 63.5159 6.19991C65.6965 7.96116 68.0449 9.97403 70.561 12.0708C75.8447 16.432 81.6317 21.2964 86.1607 25.0705C90.7735 28.8447 94.1283 31.6962 94.5476 32.0317Z" fill="#F1F3F9" stroke="#D6DCE8" stroke-width="2" stroke-miterlimit="10"/>
<path opacity="0.14" d="M86.1607 25.7378V40.331L71.819 48.9696L67.5417 51.5695L58.4838 57.0211L54.2065 59.621L52.3613 60.7113L50.6001 59.621L46.5743 57.0211L37.9358 51.5695L33.9101 48.9696L20.6587 40.6665V25.8216C25.7747 21.5443 32.4843 16.0089 38.3551 11.1445L70.4771 12.738C75.8448 17.1831 81.6318 21.9636 86.1607 25.7378Z" fill="#989FB0"/>
<path d="M83.3093 14.1642V39.8283L70.2257 47.6281L66.3677 49.9765L58.0646 54.8409L54.2066 57.1893L52.5292 58.1118L50.9357 57.1893L47.2454 54.8409L39.3617 49.9765L35.6714 47.6281L23.5942 40.0799V14.1642C23.5942 11.4804 25.7748 9.2998 28.5425 9.2998H78.361C81.0448 9.21593 83.3093 11.4804 83.3093 14.1642Z" fill="white" stroke="#D6DCE8" stroke-width="2" stroke-miterlimit="10"/>
<path d="M67.1677 23.5093H39.8198V26.9654H67.1677V23.5093Z" fill="#D6DCE8"/>
<path d="M67.1677 31.0981H39.8198V34.5541H67.1677V31.0981Z" fill="#D6DCE8"/>
<path d="M60.4808 38.7612H46.5063V42.2173H60.4808V38.7612Z" fill="#D6DCE8"/>
<path d="M94.5476 32.783V73.879C94.4638 76.2274 93.3735 78.2403 91.6961 79.666C90.2703 80.9241 88.3413 81.7628 86.2446 81.7628H20.5748C19.149 81.7628 17.8071 81.4273 16.6329 80.7563C16.1297 80.5047 15.6265 80.1693 15.2071 79.7499C14.2846 78.9951 13.4459 77.9048 13.0265 76.7306C12.6911 75.8919 12.4395 74.9693 12.4395 74.0468V73.9629V32.783L49.1743 55.7632L52.3613 57.7761L53.4516 57.1052L54.458 56.5181L94.5476 32.783Z" fill="#738DFF"/>
<path d="M91.7799 79.666C90.3542 80.9241 88.4252 81.7628 86.3284 81.7628H20.5748C19.149 81.7628 17.8071 81.4273 16.6329 80.7563C16.1297 80.5047 15.6265 80.1693 15.2071 79.7499C14.2846 78.9951 13.4459 77.9048 13.0265 76.7306C12.6911 75.8919 12.4395 74.9693 12.4395 74.0468V73.9629V32.783L16.7168 35.383L53.4516 57.1052L54.458 57.6922L54.5419 57.7761L87.5026 77.2338L91.7799 79.666Z" fill="white" stroke="#D6DCE8" stroke-width="2" stroke-miterlimit="10"/>
<path d="M94.5475 32.783V73.879C94.4637 76.2274 93.3734 78.2403 91.696 79.666C90.2702 80.9241 88.3412 81.7628 86.2445 81.7628H20.5747C19.1489 81.7628 17.807 81.4273 16.6328 80.7563C16.1296 80.5047 15.6264 80.1693 15.207 79.7499L19.4005 77.2338L52.3612 57.7761L53.4515 57.1052L54.4579 56.5181L90.1863 35.2991L94.5475 32.783Z" fill="white" stroke="#D6DCE8" stroke-width="2" stroke-miterlimit="10"/>
<path d="M89.1802 80.9238L91.864 79.5819C91.7801 79.6658 91.7801 79.6658 91.6963 79.7497C91.6963 79.7497 91.6963 79.7497 91.6124 79.7497L89.1802 80.9238Z" fill="#526DFF"/>
</svg>
