<svg width="108" height="108" viewBox="0 0 108 108" fill="none" xmlns="http://www.w3.org/2000/svg">
<path d="M78.1202 47.0957L72.7602 47.0957L67.9362 46.0237L63.6482 43.8797L59.3602 39.5917L59.3602 34.7677L89.3762 34.7677L88.8402 38.5197L86.1602 42.2717L84.0162 44.4157L78.1202 47.0957Z" fill="#F1F3F9"/>
<path d="M38.4564 47.0957L33.0964 47.0957L28.2724 46.0237L23.9844 43.8797L19.6964 39.5917L19.6964 34.7677L49.7124 34.7677L49.1764 38.5197L46.4964 42.2717L44.3524 44.4157L38.4564 47.0957Z" fill="#F1F3F9"/>
<ellipse cx="54.0004" cy="7.43213" rx="5.36" ry="5.896" fill="#F1F3F9"/>
<rect x="1.47241" y="71.2158" width="11.792" height="35.376" fill="#F1F3F9"/>
<path d="M47.2827 101.019C41.0588 101.019 32.5941 100.186 20.0987 98.1451C19.5013 98.048 19.0957 97.4842 19.1928 96.8868C19.2907 96.2894 19.8537 95.8839 20.4518 95.9817C44.5069 99.9036 53.162 99.3203 59.9309 96.9792L71.5331 91.7637L96.9151 80.4005C97.6872 80.0442 98.2634 79.367 98.4913 78.5479C98.7551 77.5833 98.6768 76.5576 98.2697 75.6439C97.8626 74.731 97.1516 73.9872 96.2575 73.5385C95.498 73.154 94.6077 73.1212 93.8217 73.4484L93.7582 73.4751L73.1287 81.0762V81.0755C72.8547 81.1835 72.5486 81.1765 72.2792 81.0559C72.0107 80.9353 71.8016 80.7114 71.6998 80.435C71.5972 80.1586 71.6113 79.8524 71.7374 79.5862C71.8635 79.32 72.0913 79.1156 72.37 79.0193L92.9775 71.4292C94.3344 70.8561 95.8729 70.9007 97.1938 71.5521C98.564 72.2271 99.6538 73.3624 100.272 74.76C100.889 76.1568 100.997 77.7267 100.574 79.1948C100.164 80.6222 99.1464 81.7965 97.7919 82.4043L72.4199 93.7629L60.7762 98.9979C60.7472 99.012 60.7167 99.0237 60.6862 99.0331C57.1981 100.246 53.2738 101.02 47.2824 101.02L47.2827 101.019Z" fill="#D6DCE8"/>
<path d="M68.8943 88.3271C68.787 88.3271 68.6751 88.3271 68.5702 88.3161L65.2817 88.1141L46.2914 87.2372C45.6862 87.209 45.2187 86.6954 45.2469 86.0901C45.2751 85.4841 45.7895 85.0166 46.3948 85.0448L65.3999 85.9218L68.7166 86.1238C69.5662 86.1676 70.3906 85.8333 70.9708 85.2116C71.652 84.4811 72.0591 83.5376 72.1241 82.5409C72.1883 81.5442 71.9057 80.5561 71.3239 79.7442C70.8267 79.0528 70.0539 78.6135 69.206 78.5407L65.9308 78.3411L43.4773 76.5543C43.3685 76.5457 43.2612 76.5206 43.1594 76.4799C40.5583 75.5576 37.8321 75.04 35.0744 74.9453C29.1723 74.7542 24.4744 76.671 21.1116 80.6455H21.1108C20.7201 81.1082 20.0279 81.1654 19.5652 80.7747C19.1032 80.384 19.0453 79.6918 19.436 79.2291C23.2153 74.7614 28.672 72.5253 35.2208 72.7554C38.1499 72.865 41.0461 73.4162 43.8108 74.3902L66.0879 76.1613L69.3483 76.361L69.3475 76.3618C70.8328 76.469 72.1952 77.223 73.0746 78.4241C73.975 79.6557 74.4142 81.1646 74.3164 82.6875C74.2177 84.2096 73.5882 85.6494 72.5374 86.7551C71.5869 87.751 70.273 88.3187 68.8958 88.3273L68.8943 88.3271Z" fill="#D6DCE8"/>
<path d="M19.9646 105.251H14.2644C13.6592 105.251 13.1682 104.76 13.1682 104.155C13.1682 103.549 13.6591 103.058 14.2644 103.058H18.8683V75.4355H14.2644C13.6592 75.4355 13.1682 74.9446 13.1682 74.3393C13.1682 73.7341 13.6591 73.2432 14.2644 73.2432H19.9646C20.255 73.2432 20.5338 73.3583 20.7397 73.5642C20.9456 73.7701 21.0607 74.0489 21.0607 74.3393V104.155C21.0607 104.446 20.9456 104.724 20.7397 104.93C20.5338 105.136 20.255 105.251 19.9646 105.251V105.251Z" fill="#D6DCE8"/>
<path d="M14.0452 107.664H1.54882C0.94358 107.664 0.452637 107.173 0.452637 106.567V70.8325C0.452637 70.2273 0.94356 69.7363 1.54882 69.7363H14.0452C14.3357 69.7363 14.6144 69.8514 14.8203 70.0574C15.0262 70.2633 15.1414 70.542 15.1414 70.8325V106.567C15.1414 106.858 15.0263 107.137 14.8203 107.342C14.6144 107.548 14.3357 107.664 14.0452 107.664V107.664ZM2.64503 105.471H12.949V71.9291H2.64503V105.471Z" fill="#D6DCE8"/>
<path d="M7.687 101.306C7.08176 101.306 6.59082 100.815 6.59082 100.21V98.6753C6.59082 98.07 7.08174 97.5791 7.687 97.5791C8.29225 97.5791 8.78318 98.07 8.78318 98.6753V100.21C8.78318 100.5 8.66808 100.779 8.46215 100.985C8.25623 101.191 7.97748 101.306 7.687 101.306Z" fill="#D6DCE8"/>
<path d="M34.0733 47.9988C29.3354 47.9988 25.2514 46.7249 22.259 44.3156C19.3542 41.9745 17.7537 38.7337 17.7537 35.1909C17.7537 34.5857 18.2438 34.0947 18.8498 34.0947H49.297C49.5875 34.0947 49.8662 34.2106 50.0722 34.4158C50.2781 34.6217 50.3932 34.9004 50.3932 35.1909C50.3932 38.7339 48.7928 41.9739 45.8856 44.3156C42.8954 46.7163 38.8177 47.9988 34.0736 47.9988H34.0733ZM20.0094 36.2869C20.3007 38.7251 21.5613 40.9394 23.6354 42.6071C26.231 44.7007 29.8421 45.8055 34.0733 45.8055C38.3044 45.8055 41.9132 44.7093 44.5111 42.6071C46.5829 40.9385 47.8459 38.7243 48.1347 36.2869H20.0094Z" fill="#D6DCE8"/>
<path d="M74.0357 47.9988C69.2978 47.9988 65.2138 46.7249 62.2236 44.3156C59.3164 41.9745 57.7161 38.7337 57.7161 35.1909C57.7161 34.5857 58.207 34.0947 58.8122 34.0947H89.2594C89.5507 34.0947 89.8294 34.2106 90.0346 34.4158C90.2405 34.6217 90.3556 34.9004 90.3556 35.1909C90.3556 38.7339 88.7552 41.9739 85.8503 44.3156C82.8577 46.7163 78.7736 47.9988 74.036 47.9988H74.0357ZM59.9742 36.2869C60.2639 38.7251 61.5261 40.9394 63.5978 42.6071C66.1958 44.7007 69.8045 45.8055 74.0357 45.8055C78.2668 45.8055 81.878 44.7093 84.4735 42.6071C86.5477 40.9385 87.8082 38.7243 88.0995 36.2869H59.9742Z" fill="#D6DCE8"/>
<path d="M53.9833 14C52.188 14.0024 50.4646 13.2906 49.1938 12.023C47.923 10.7546 47.2081 9.03361 47.2065 7.23745C47.205 5.44209 47.9167 3.72029 49.1851 2.44949C50.4543 1.17951 52.1761 0.46465 53.9715 0.463868C55.7669 0.463085 57.4887 1.17638 58.7587 2.44558C60.0286 3.71478 60.7419 5.43658 60.7419 7.23194C60.7396 9.02496 60.0271 10.7437 58.7602 12.0121C57.4934 13.2805 55.7754 13.9954 53.9833 14.0001L53.9833 14ZM53.9833 2.65701V2.65622C52.7689 2.65387 51.6039 3.13462 50.7442 3.99121C49.8845 4.84856 49.4006 6.01207 49.399 7.22655C49.3975 8.44016 49.8782 9.60519 50.7356 10.4641C51.5937 11.323 52.7572 11.8069 53.9717 11.8077C55.1853 11.8085 56.3496 11.3262 57.2085 10.468C58.0673 9.60984 58.5497 8.44554 58.5497 7.23186C58.5497 6.01902 58.069 4.85622 57.2131 3.99732C56.3573 3.13843 55.1955 2.65374 53.9834 2.64981L53.9833 2.65701Z" fill="#D6DCE8"/>
<path d="M53.9836 54.8772C53.3776 54.8772 52.8875 54.387 52.8875 53.781V12.9409C52.8875 12.3357 53.3776 11.8447 53.9836 11.8447C54.5889 11.8447 55.0798 12.3357 55.0798 12.9409V53.781C55.0798 54.0723 54.9639 54.351 54.7588 54.5562C54.5529 54.7621 54.2741 54.8772 53.9836 54.8772V54.8772Z" fill="#D6DCE8"/>
<path d="M34.0737 8.32824C33.4685 8.32824 32.9775 7.83732 32.9775 7.23207V3.57079C32.9775 2.96555 33.4685 2.47461 34.0737 2.47461C34.679 2.47461 35.1699 2.96553 35.1699 3.57079V7.23207C35.1699 7.52255 35.054 7.80128 34.8489 8.00722C34.643 8.21313 34.3642 8.32824 34.0737 8.32824V8.32824Z" fill="#D6DCE8"/>
<path d="M74.0361 8.32824C73.4309 8.32824 72.9399 7.83732 72.9399 7.23207V3.57079C72.9399 2.96555 73.4309 2.47461 74.0361 2.47461C74.6414 2.47461 75.1323 2.96553 75.1323 3.57079V7.23207C75.1323 7.52255 75.0172 7.80128 74.8113 8.00722C74.6061 8.21313 74.3274 8.32824 74.0361 8.32824V8.32824Z" fill="#D6DCE8"/>
<path d="M84.4306 8.3281H59.8384C59.2331 8.3281 58.7422 7.83718 58.7422 7.23192C58.7422 6.62667 59.2331 6.13574 59.8384 6.13574H84.4306C85.0359 6.13574 85.5268 6.62667 85.5268 7.23192C85.5268 7.83718 85.0359 8.3281 84.4306 8.3281Z" fill="#D6DCE8"/>
<path d="M47.8341 8.3281H23.3882C22.7829 8.3281 22.292 7.83718 22.292 7.23192C22.292 6.62667 22.7829 6.13574 23.3882 6.13574H47.8341C48.4393 6.13574 48.9303 6.62667 48.9303 7.23192C48.9303 7.83718 48.4394 8.3281 47.8341 8.3281Z" fill="#D6DCE8"/>
<path d="M51.8564 54.0635H56.1444L60.9684 59.9595L69.0084 63.1755L72.2244 63.7115V70.1435H35.7764V63.7115H40.0644L47.0324 59.9595L51.8564 54.0635Z" fill="#F1F3F9"/>
<path d="M72.6587 70.903H35.2441C34.6389 70.903 34.1479 70.4129 34.1479 69.8068V65.5913C34.166 64.6893 34.5355 63.8304 35.1776 63.197C35.8196 62.5636 36.684 62.2058 37.5853 62.1995H39.8497C40.9082 61.8902 48.3997 59.5076 50.7652 53.5242L50.7659 53.525C50.9311 53.1069 51.3359 52.832 51.7854 52.832H56.3893C56.8388 52.832 57.2435 53.1069 57.4087 53.525C59.785 59.5272 67.2609 61.891 68.3242 62.2003L70.3874 62.1995C71.2988 62.2105 72.1694 62.5816 72.8075 63.2338C73.4456 63.8853 73.7988 64.763 73.7901 65.6744L73.7659 69.8132V69.8139C73.7643 70.1052 73.6461 70.384 73.4386 70.5883C73.2303 70.7927 72.95 70.9062 72.6588 70.9031L72.6587 70.903ZM36.3405 68.7106H71.5663L71.5858 65.6679H71.5866C71.6007 64.9827 71.0612 64.4135 70.3761 64.3916H68.1837C68.0913 64.3924 67.9989 64.3806 67.9096 64.3571C67.5323 64.2585 58.9054 61.9456 55.6811 55.0242H52.5061C49.2785 61.9434 40.6541 64.2585 40.2775 64.3571C40.1874 64.3806 40.0943 64.3924 40.0011 64.3916H37.5896C36.8951 64.4112 36.3431 64.9796 36.3446 65.6741L36.3405 68.7106Z" fill="#D6DCE8"/>
<path d="M58.9566 36.2864C58.775 36.2872 58.5964 36.2418 58.4367 36.1548C57.9059 35.8659 57.7093 35.2004 57.9982 34.6687L73.1449 6.71106C73.2787 6.44642 73.5136 6.24754 73.7963 6.15907C74.079 6.07137 74.3851 6.10034 74.6451 6.24128C74.9058 6.383 75.0976 6.62258 75.1783 6.90759C75.2589 7.1926 75.2205 7.49795 75.0726 7.754L59.9211 35.7137C59.7293 36.0676 59.359 36.2884 58.9565 36.2876L58.9566 36.2864Z" fill="#D6DCE8"/>
<path d="M89.1892 36.2869C88.786 36.2884 88.4141 36.0676 88.2222 35.7129L73.0732 7.75325C72.9033 7.49722 72.8485 7.18166 72.9221 6.88337C72.9965 6.58427 73.1922 6.33059 73.4624 6.18416C73.7325 6.03696 74.0519 6.01034 74.3424 6.11056C74.6337 6.21 74.8686 6.42766 74.9915 6.71033L90.1429 34.668C90.4318 35.1996 90.2353 35.8652 89.7045 36.1541C89.5463 36.2402 89.3693 36.2856 89.1893 36.2856L89.1892 36.2869Z" fill="#D6DCE8"/>
<path d="M18.9941 36.2865C18.6081 36.2865 18.2511 36.0829 18.0538 35.7509C17.8565 35.4189 17.8486 35.0087 18.0319 34.6689L33.1809 6.71119C33.469 6.17798 34.1345 5.9799 34.6678 6.26804C35.2002 6.55617 35.3983 7.2217 35.1101 7.75414L19.9635 35.7138C19.7709 36.0693 19.399 36.2901 18.9942 36.2877L18.9941 36.2865Z" fill="#D6DCE8"/>
<path d="M49.2252 36.2866C48.822 36.2874 48.4516 36.0666 48.2606 35.7127L33.1178 7.75302C32.9698 7.49699 32.9314 7.19162 33.0121 6.90661C33.0919 6.6216 33.2845 6.38201 33.5445 6.2403C33.8052 6.09937 34.1113 6.07039 34.394 6.15809C34.6767 6.24657 34.9116 6.44544 35.0447 6.71009L50.1961 34.6678C50.3801 35.0076 50.3715 35.4179 50.1742 35.7498C49.9769 36.0818 49.6198 36.2854 49.2338 36.2854L49.2252 36.2866Z" fill="#D6DCE8"/>
<path d="M106.78 38.4394H95.6807C95.0746 38.4394 94.5845 37.9485 94.5845 37.3432C94.5845 36.738 95.0746 36.2471 95.6807 36.2471H106.78C107.385 36.2471 107.876 36.738 107.876 37.3432C107.876 37.9485 107.385 38.4394 106.78 38.4394Z" fill="#AAB2C5"/>
<path d="M12.3197 38.4394H1.2202C0.614967 38.4394 0.124023 37.9485 0.124023 37.3432C0.124023 36.738 0.614947 36.2471 1.2202 36.2471H12.3197C12.9257 36.2471 13.4159 36.738 13.4159 37.3432C13.4159 37.9485 12.9257 38.4394 12.3197 38.4394Z" fill="#AAB2C5"/>
<path d="M90.0973 17.5994C89.6009 17.5994 89.1671 17.2666 89.0387 16.7875C88.9103 16.3083 89.1194 15.8025 89.5492 15.5543L99.1626 10.003C99.6872 9.70081 100.358 9.88089 100.661 10.4055C100.963 10.9301 100.783 11.6011 100.259 11.9041L90.6454 17.4531C90.4786 17.5487 90.2899 17.5996 90.0973 17.5996L90.0973 17.5994Z" fill="#AAB2C5"/>
<path d="M8.29289 64.8312C7.79491 64.8344 7.35723 64.5008 7.22804 64.0201C7.09885 63.5385 7.31026 63.0312 7.74246 62.7837L17.3559 57.2395C17.608 57.0915 17.9079 57.0508 18.1905 57.1252C18.4724 57.2004 18.7136 57.3844 18.8592 57.6373C19.0056 57.8902 19.0447 58.1908 18.968 58.4727C18.8913 58.7538 18.7057 58.9934 18.452 59.1382L8.83863 64.6935C8.67186 64.7867 8.48395 64.8336 8.29289 64.8313L8.29289 64.8312Z" fill="#AAB2C5"/>
<path d="M17.9039 17.5996C17.7113 17.5996 17.5226 17.5487 17.3558 17.4532L7.7424 11.9041C7.2178 11.6011 7.03772 10.9301 7.33995 10.4055C7.64296 9.88089 8.31398 9.70081 8.83857 10.003L18.452 15.5543C18.8818 15.8025 19.0909 16.3083 18.9625 16.7875C18.8341 17.2666 18.4003 17.5994 17.9039 17.5994L17.9039 17.5996Z" fill="#AAB2C5"/>
<path d="M99.7083 64.8314C99.5165 64.8314 99.3286 64.7805 99.1626 64.685L89.5492 59.1337C89.0293 58.8292 88.8531 58.1621 89.1545 57.6398C89.4552 57.1184 90.1215 56.9375 90.6453 57.235L100.259 62.7841C100.691 63.0315 100.902 63.5389 100.773 64.0204C100.644 64.5011 100.206 64.8347 99.7083 64.8316L99.7083 64.8314Z" fill="#AAB2C5"/>
<path d="M94.6269 28.1527C94.0764 28.1527 93.6121 27.7448 93.5401 27.1998C93.4688 26.6541 93.8126 26.1404 94.3442 25.9979L100.603 24.3208C101.188 24.1642 101.789 24.5111 101.946 25.0959C102.103 25.6808 101.756 26.2822 101.171 26.4388L94.9118 28.1159C94.8187 28.1409 94.7232 28.1535 94.6268 28.1527H94.6269Z" fill="#AAB2C5"/>
<path d="M7.2044 51.5776C6.65474 51.5776 6.18966 51.1697 6.1184 50.6248C6.04637 50.079 6.3901 49.5654 6.92173 49.4229L13.7658 47.5923C14.3507 47.4357 14.9521 47.7825 15.1086 48.3674C15.266 48.9523 14.9192 49.5537 14.3343 49.7102L7.48716 51.5385C7.39555 51.5643 7.30003 51.5776 7.2045 51.5776H7.2044Z" fill="#AAB2C5"/>
<path d="M13.9192 27.2048C13.8229 27.2048 13.7273 27.1915 13.6342 27.1656L7.12059 25.4118H7.12138C6.59991 25.2082 6.31492 24.646 6.46054 24.1058C6.60539 23.5655 7.1339 23.221 7.68668 23.3071L14.2003 25.061C14.7123 25.2168 15.0373 25.7203 14.9676 26.2519C14.8979 26.7827 14.4547 27.186 13.9192 27.2048L13.9192 27.2048Z" fill="#AAB2C5"/>
<path d="M101.082 50.5637C100.985 50.5645 100.89 50.552 100.797 50.5261L94.283 48.7723C93.6981 48.6157 93.3512 48.0144 93.5078 47.4295C93.6652 46.8446 94.2657 46.4977 94.8506 46.6551L101.364 48.409C101.896 48.5507 102.24 49.0651 102.168 49.6101C102.096 50.1558 101.631 50.5637 101.082 50.5637H101.082Z" fill="#AAB2C5"/>
</svg>
