<svg width="20" height="20" viewBox="0 0 20 20" fill="none" xmlns="http://www.w3.org/2000/svg">
<path d="M17.9173 9.08268V3.41602C17.9173 2.16602 17.384 1.66602 16.059 1.66602H12.6923C11.3673 1.66602 10.834 2.16602 10.834 3.41602V9.08268C10.834 10.3327 11.3673 10.8327 12.6923 10.8327H16.059C17.384 10.8327 17.9173 10.3327 17.9173 9.08268Z" fill="#95A0B9"/>
<path d="M9.16732 10.916V16.5827C9.16732 17.8327 8.63399 18.3327 7.30899 18.3327H3.94232C2.61732 18.3327 2.08398 17.8327 2.08398 16.5827V10.916C2.08398 9.66602 2.61732 9.16602 3.94232 9.16602H7.30899C8.63399 9.16602 9.16732 9.66602 9.16732 10.916Z" fill="#95A0B9"/>
<path d="M17.9173 16.5833V14.25C17.9173 13 17.384 12.5 16.059 12.5H12.6923C11.3673 12.5 10.834 13 10.834 14.25V16.5833C10.834 17.8333 11.3673 18.3333 12.6923 18.3333H16.059C17.384 18.3333 17.9173 17.8333 17.9173 16.5833Z" fill="#95A0B9"/>
<path d="M9.16732 5.74935V3.41602C9.16732 2.16602 8.63399 1.66602 7.30899 1.66602H3.94232C2.61732 1.66602 2.08398 2.16602 2.08398 3.41602V5.74935C2.08398 6.99935 2.61732 7.49935 3.94232 7.49935H7.30899C8.63399 7.49935 9.16732 6.99935 9.16732 5.74935Z" fill="#95A0B9"/>
</svg>
