<svg width="16" height="17" viewBox="0 0 16 17" fill="none" xmlns="http://www.w3.org/2000/svg">
<path fill-rule="evenodd" clip-rule="evenodd" d="M12.1667 3.16699V2.33366C12.1667 1.41318 11.4205 0.666992 10.5 0.666992H5.5C4.57952 0.666992 3.83333 1.41318 3.83333 2.33366V3.16699H1.33333C0.8731 3.16699 0.5 3.54009 0.5 4.00033C0.5 4.46056 0.8731 4.83366 1.33333 4.83366H2.16667V14.0003C2.16667 15.3811 3.28596 16.5003 4.66667 16.5003H11.3333C12.7141 16.5003 13.8333 15.3811 13.8333 14.0003V4.83366H14.6667C15.1269 4.83366 15.5 4.46056 15.5 4.00033C15.5 3.54009 15.1269 3.16699 14.6667 3.16699H12.1667ZM10.5 2.33398H5.5V3.16732H10.5V2.33398ZM12.1668 4.83398H3.8335V14.0007C3.8335 14.4609 4.2066 14.834 4.66683 14.834H11.3335C11.7937 14.834 12.1668 14.4609 12.1668 14.0007V4.83398ZM5.5 6.5H7.16667V13.1667H5.5V6.5ZM10.5002 6.5H8.8335V13.1667H10.5002V6.5Z" fill="#B8BCC5"/>
<path d="M12.1667 3.16699H11.9167V3.41699H12.1667V3.16699ZM3.83333 3.16699V3.41699H4.08333V3.16699H3.83333ZM2.16667 4.83366H2.41667V4.58366H2.16667V4.83366ZM13.8333 4.83366V4.58366H13.5833V4.83366H13.8333ZM5.5 2.33398V2.08398H5.25V2.33398H5.5ZM10.5 2.33398H10.75V2.08398H10.5V2.33398ZM5.5 3.16732H5.25V3.41732H5.5V3.16732ZM10.5 3.16732V3.41732H10.75V3.16732H10.5ZM3.8335 4.83398V4.58398H3.5835V4.83398H3.8335ZM12.1668 4.83398H12.4168V4.58398H12.1668V4.83398ZM7.16667 6.5H7.41667V6.25H7.16667V6.5ZM5.5 6.5V6.25H5.25V6.5H5.5ZM7.16667 13.1667V13.4167H7.41667V13.1667H7.16667ZM5.5 13.1667H5.25V13.4167H5.5V13.1667ZM8.8335 6.5V6.25H8.5835V6.5H8.8335ZM10.5002 6.5H10.7502V6.25H10.5002V6.5ZM8.8335 13.1667H8.5835V13.4167H8.8335V13.1667ZM10.5002 13.1667V13.4167H10.7502V13.1667H10.5002ZM11.9167 2.33366V3.16699H12.4167V2.33366H11.9167ZM10.5 0.916992C11.2824 0.916992 11.9167 1.55125 11.9167 2.33366H12.4167C12.4167 1.27512 11.5586 0.416992 10.5 0.416992V0.916992ZM5.5 0.916992H10.5V0.416992H5.5V0.916992ZM4.08333 2.33366C4.08333 1.55126 4.7176 0.916992 5.5 0.916992V0.416992C4.44145 0.416992 3.58333 1.27511 3.58333 2.33366H4.08333ZM4.08333 3.16699V2.33366H3.58333V3.16699H4.08333ZM1.33333 3.41699H3.83333V2.91699H1.33333V3.41699ZM0.75 4.00033C0.75 3.67816 1.01117 3.41699 1.33333 3.41699V2.91699C0.735029 2.91699 0.25 3.40202 0.25 4.00033H0.75ZM1.33333 4.58366C1.01117 4.58366 0.75 4.32249 0.75 4.00033H0.25C0.25 4.59863 0.735029 5.08366 1.33333 5.08366V4.58366ZM2.16667 4.58366H1.33333V5.08366H2.16667V4.58366ZM2.41667 14.0003V4.83366H1.91667V14.0003H2.41667ZM4.66667 16.2503C3.42403 16.2503 2.41667 15.243 2.41667 14.0003H1.91667C1.91667 15.5191 3.14789 16.7503 4.66667 16.7503V16.2503ZM11.3333 16.2503H4.66667V16.7503H11.3333V16.2503ZM13.5833 14.0003C13.5833 15.243 12.576 16.2503 11.3333 16.2503V16.7503C12.8522 16.7503 14.0833 15.5191 14.0833 14.0003H13.5833ZM13.5833 4.83366V14.0003H14.0833V4.83366H13.5833ZM14.6667 4.58366H13.8333V5.08366H14.6667V4.58366ZM15.25 4.00033C15.25 4.32249 14.9888 4.58366 14.6667 4.58366V5.08366C15.265 5.08366 15.75 4.59863 15.75 4.00033H15.25ZM14.6667 3.41699C14.9888 3.41699 15.25 3.67816 15.25 4.00033H15.75C15.75 3.40202 15.265 2.91699 14.6667 2.91699V3.41699ZM12.1667 3.41699H14.6667V2.91699H12.1667V3.41699ZM5.5 2.58398H10.5V2.08398H5.5V2.58398ZM5.75 3.16732V2.33398H5.25V3.16732H5.75ZM10.5 2.91732H5.5V3.41732H10.5V2.91732ZM10.25 2.33398V3.16732H10.75V2.33398H10.25ZM3.8335 5.08398H12.1668V4.58398H3.8335V5.08398ZM4.0835 14.0007V4.83398H3.5835V14.0007H4.0835ZM4.66683 14.584C4.34466 14.584 4.0835 14.3228 4.0835 14.0007H3.5835C3.5835 14.599 4.06853 15.084 4.66683 15.084V14.584ZM11.3335 14.584H4.66683V15.084H11.3335V14.584ZM11.9168 14.0007C11.9168 14.3228 11.6557 14.584 11.3335 14.584V15.084C11.9318 15.084 12.4168 14.599 12.4168 14.0007H11.9168ZM11.9168 4.83398V14.0007H12.4168V4.83398H11.9168ZM7.16667 6.25H5.5V6.75H7.16667V6.25ZM7.41667 13.1667V6.5H6.91667V13.1667H7.41667ZM5.5 13.4167H7.16667V12.9167H5.5V13.4167ZM5.25 6.5V13.1667H5.75V6.5H5.25ZM8.8335 6.75H10.5002V6.25H8.8335V6.75ZM9.0835 13.1667V6.5H8.5835V13.1667H9.0835ZM10.5002 12.9167H8.8335V13.4167H10.5002V12.9167ZM10.2502 6.5V13.1667H10.7502V6.5H10.2502Z" fill="#F5F5F5"/>
</svg>
