<svg width="20" height="21" viewBox="0 0 20 21" fill="none" xmlns="http://www.w3.org/2000/svg">
<path fill-rule="evenodd" clip-rule="evenodd" d="M15 4V3C15 1.89543 14.1046 1 13 1H7C5.89543 1 5 1.89543 5 3V4H2C1.44772 4 1 4.44772 1 5C1 5.55228 1.44772 6 2 6H3V17C3 18.6569 4.34315 20 6 20H14C15.6569 20 17 18.6569 17 17V6H18C18.5523 6 19 5.55228 19 5C19 4.44772 18.5523 4 18 4H15ZM13 3H7V4H13V3ZM15 6H5V17C5 17.5523 5.44772 18 6 18H14C14.5523 18 15 17.5523 15 17V6ZM7 8H9V16H7V8ZM13 8H11V16H13V8Z" fill="#7A8190"/>
<path d="M15 4H14.75V4.25H15V4ZM5 4V4.25H5.25V4H5ZM3 6H3.25V5.75H3V6ZM17 6V5.75H16.75V6H17ZM7 3V2.75H6.75V3H7ZM13 3H13.25V2.75H13V3ZM7 4H6.75V4.25H7V4ZM13 4V4.25H13.25V4H13ZM5 6V5.75H4.75V6H5ZM15 6H15.25V5.75H15V6ZM9 8H9.25V7.75H9V8ZM7 8V7.75H6.75V8H7ZM9 16V16.25H9.25V16H9ZM7 16H6.75V16.25H7V16ZM11 8V7.75H10.75V8H11ZM13 8H13.25V7.75H13V8ZM11 16H10.75V16.25H11V16ZM13 16V16.25H13.25V16H13ZM14.75 3V4H15.25V3H14.75ZM13 1.25C13.9665 1.25 14.75 2.0335 14.75 3H15.25C15.25 1.75736 14.2427 0.75 13 0.75V1.25ZM7 1.25H13V0.75H7V1.25ZM5.25 3C5.25 2.0335 6.0335 1.25 7 1.25V0.75C5.75736 0.75 4.75 1.75736 4.75 3H5.25ZM5.25 4V3H4.75V4H5.25ZM2 4.25H5V3.75H2V4.25ZM1.25 5C1.25 4.58579 1.58579 4.25 2 4.25V3.75C1.30965 3.75 0.75 4.30965 0.75 5H1.25ZM2 5.75C1.58579 5.75 1.25 5.41421 1.25 5H0.75C0.75 5.69035 1.30965 6.25 2 6.25V5.75ZM3 5.75H2V6.25H3V5.75ZM3.25 17V6H2.75V17H3.25ZM6 19.75C4.48122 19.75 3.25 18.5188 3.25 17H2.75C2.75 18.795 4.20508 20.25 6 20.25V19.75ZM14 19.75H6V20.25H14V19.75ZM16.75 17C16.75 18.5188 15.5188 19.75 14 19.75V20.25C15.795 20.25 17.25 18.795 17.25 17H16.75ZM16.75 6V17H17.25V6H16.75ZM18 5.75H17V6.25H18V5.75ZM18.75 5C18.75 5.41421 18.4142 5.75 18 5.75V6.25C18.6904 6.25 19.25 5.69035 19.25 5H18.75ZM18 4.25C18.4142 4.25 18.75 4.58579 18.75 5H19.25C19.25 4.30965 18.6904 3.75 18 3.75V4.25ZM15 4.25H18V3.75H15V4.25ZM7 3.25H13V2.75H7V3.25ZM7.25 4V3H6.75V4H7.25ZM13 3.75H7V4.25H13V3.75ZM12.75 3V4H13.25V3H12.75ZM5 6.25H15V5.75H5V6.25ZM5.25 17V6H4.75V17H5.25ZM6 17.75C5.58579 17.75 5.25 17.4142 5.25 17H4.75C4.75 17.6904 5.30965 18.25 6 18.25V17.75ZM14 17.75H6V18.25H14V17.75ZM14.75 17C14.75 17.4142 14.4142 17.75 14 17.75V18.25C14.6904 18.25 15.25 17.6904 15.25 17H14.75ZM14.75 6V17H15.25V6H14.75ZM9 7.75H7V8.25H9V7.75ZM9.25 16V8H8.75V16H9.25ZM7 16.25H9V15.75H7V16.25ZM6.75 8V16H7.25V8H6.75ZM11 8.25H13V7.75H11V8.25ZM11.25 16V8H10.75V16H11.25ZM13 15.75H11V16.25H13V15.75ZM12.75 8V16H13.25V8H12.75Z" fill="#F5F5F5"/>
</svg>
