<svg width="18" height="18" viewBox="0 0 18 18" fill="none" xmlns="http://www.w3.org/2000/svg">
<path fill-rule="evenodd" clip-rule="evenodd" d="M3 0C2.17158 0 1.5 0.671574 1.5 1.5V16.5C1.5 17.3284 2.17158 18 3 18H15C15.8284 18 16.5 17.3284 16.5 16.5V9V4.5539C16.5 4.39901 16.4376 4.25012 16.3259 4.13839L12.3721 0.184482C12.2542 0.066624 12.0914 0 11.9212 0H9H3ZM9.04556 12.0482C8.59225 12.0482 8.23887 11.9378 7.98556 11.717C7.73225 11.4962 7.59888 11.1682 7.58556 10.733C7.58225 10.6402 7.58056 10.5042 7.58056 10.325C7.58056 10.1426 7.58225 10.005 7.58556 9.91218C7.59888 9.4866 7.73556 9.1602 7.99556 8.93298C8.25556 8.70576 8.60556 8.59218 9.04556 8.59218C9.48556 8.59218 9.83556 8.70576 10.0956 8.93298C10.3589 9.1602 10.4973 9.4866 10.5106 9.91218C10.5173 10.0978 10.5206 10.2354 10.5206 10.325C10.5206 10.4114 10.5173 10.5474 10.5106 10.733C10.4939 11.1682 10.3589 11.4962 10.1056 11.717C9.85225 11.9378 9.49888 12.0482 9.04556 12.0482ZM9.04556 11.4962C9.26888 11.4962 9.44725 11.4322 9.58056 11.3042C9.71387 11.173 9.78556 10.9746 9.79556 10.709C9.80225 10.517 9.80556 10.3874 9.80556 10.3202C9.80556 10.2466 9.80225 10.117 9.79556 9.93138C9.78556 9.66576 9.71387 9.46896 9.58056 9.34098C9.44725 9.20976 9.26888 9.14418 9.04556 9.14418C8.82556 9.14418 8.64887 9.20976 8.51556 9.34098C8.38225 9.46896 8.31056 9.66576 8.30056 9.93138C8.29725 10.0242 8.29556 10.1538 8.29556 10.3202C8.29556 10.4834 8.29725 10.613 8.30056 10.709C8.31056 10.9746 8.38056 11.173 8.51056 11.3042C8.64387 11.4322 8.82225 11.4962 9.04556 11.4962ZM4.15494 12.0002C4.12161 12.0002 4.09327 11.989 4.06994 11.9666C4.04661 11.9442 4.03494 11.917 4.03494 11.885V8.76018C4.03494 8.72496 4.04494 8.69616 4.06494 8.67378C4.08828 8.6514 4.11827 8.64018 4.15494 8.64018H5.37494C6.35494 8.64018 6.85494 9.07536 6.87494 9.94578C6.88163 10.1314 6.88494 10.2562 6.88494 10.3202C6.88494 10.381 6.88163 10.5042 6.87494 10.6898C6.86163 11.1378 6.73662 11.469 6.49994 11.6834C6.26325 11.8946 5.89662 12.0002 5.39994 12.0002H4.15494ZM5.37494 11.4482C5.65494 11.4482 5.85663 11.389 5.97994 11.2706C6.10325 11.149 6.16825 10.9506 6.17494 10.6754C6.18162 10.4834 6.18494 10.3634 6.18494 10.3154C6.18494 10.2642 6.18162 10.1458 6.17494 9.96018C6.16825 9.6978 6.09825 9.50418 5.96494 9.37938C5.83494 9.25458 5.62994 9.19218 5.34994 9.19218H4.72994V11.4482H5.37494ZM11.6071 11.7074C11.8604 11.9346 12.2171 12.0482 12.6771 12.0482C12.9738 12.0482 13.2321 12.0002 13.4521 11.9042C13.6721 11.805 13.8421 11.6722 13.9621 11.5058C14.0821 11.3362 14.1454 11.1458 14.1521 10.9346C14.1554 10.9058 14.1454 10.8818 14.1221 10.8626C14.1021 10.8434 14.0771 10.8338 14.0471 10.8338H13.5721C13.5321 10.8338 13.5004 10.8418 13.4771 10.8578C13.4571 10.8738 13.4421 10.9042 13.4321 10.949C13.3821 11.1474 13.2938 11.2882 13.1671 11.3714C13.0438 11.4546 12.8788 11.4962 12.6721 11.4962C12.1921 11.4962 11.9421 11.2386 11.9221 10.7234C11.9188 10.6306 11.9171 10.4946 11.9171 10.3154C11.9171 10.1362 11.9188 10.0034 11.9221 9.91698C11.9421 9.40176 12.1921 9.14418 12.6721 9.14418C12.8788 9.14418 13.0438 9.18576 13.1671 9.26898C13.2904 9.34896 13.3788 9.48978 13.4321 9.69138C13.4454 9.7362 13.4621 9.76656 13.4821 9.78258C13.5021 9.7986 13.5321 9.80658 13.5721 9.80658H14.0471C14.0738 9.80658 14.0971 9.7986 14.1171 9.78258C14.1404 9.76338 14.1521 9.741 14.1521 9.71538V9.70578C14.1454 9.49458 14.0821 9.30576 13.9621 9.13938C13.8421 8.96976 13.6721 8.83698 13.4521 8.74098C13.2321 8.6418 12.9738 8.59218 12.6771 8.59218C12.2238 8.59218 11.8688 8.70738 11.6121 8.93778C11.3588 9.165 11.2238 9.48336 11.2071 9.89298C11.2038 9.98256 11.2021 10.1266 11.2021 10.325C11.2021 10.5202 11.2038 10.661 11.2071 10.7474C11.2238 11.1602 11.3571 11.4802 11.6071 11.7074Z" fill="#0094FF"/>
<path d="M16.5 4.5C16.5 4.5 16.5 4.125 16.125 3.75L12.75 0.375C12.375 0 12 0 12 0V3.75C12 4.125 12.375 4.5 12.75 4.5H16.5Z" fill="#76C5FF"/>
</svg>
