<svg width="19" height="22" viewBox="0 0 19 22" fill="none" xmlns="http://www.w3.org/2000/svg">
<path fill-rule="evenodd" clip-rule="evenodd" d="M1.83333 0C0.820814 0 0 0.820813 0 1.83333V20.1667C0 21.1792 0.820814 22 1.83333 22H16.5C17.5125 22 18.3333 21.1792 18.3333 20.1667V11V5.56588C18.3333 5.37657 18.2571 5.1946 18.1205 5.05803L13.2881 0.225478C13.144 0.0814293 12.945 0 12.737 0H9.16667H1.83333ZM9.22235 14.7256C8.66831 14.7256 8.2364 14.5906 7.9268 14.3208C7.61719 14.0509 7.45418 13.65 7.43791 13.1181C7.43386 13.0046 7.4318 12.8385 7.4318 12.6194C7.4318 12.3965 7.43386 12.2283 7.43791 12.1149C7.45418 11.5947 7.62124 11.1958 7.93902 10.9181C8.2568 10.6404 8.68458 10.5016 9.22235 10.5016C9.76013 10.5016 10.1879 10.6404 10.5057 10.9181C10.8275 11.1958 10.9966 11.5947 11.0129 12.1149C11.0211 12.3417 11.0251 12.5099 11.0251 12.6194C11.0251 12.725 11.0211 12.8913 11.0129 13.1181C10.9925 13.65 10.8275 14.0509 10.5179 14.3208C10.2083 14.5906 9.7764 14.7256 9.22235 14.7256ZM9.22235 14.0509C9.49529 14.0509 9.71331 13.9726 9.87624 13.8162C10.0392 13.6558 10.1268 13.4134 10.139 13.0888C10.1472 12.8541 10.1512 12.6957 10.1512 12.6136C10.1512 12.5236 10.1472 12.3652 10.139 12.1384C10.1268 11.8137 10.0392 11.5732 9.87624 11.4168C9.71331 11.2564 9.49529 11.1762 9.22235 11.1762C8.95347 11.1762 8.73751 11.2564 8.57458 11.4168C8.41164 11.5732 8.32402 11.8137 8.3118 12.1384C8.30775 12.2518 8.30569 12.4102 8.30569 12.6136C8.30569 12.813 8.30775 12.9714 8.3118 13.0888C8.32402 13.4134 8.40958 13.6558 8.56847 13.8162C8.7314 13.9726 8.94942 14.0509 9.22235 14.0509ZM3.24493 14.6669C3.20419 14.6669 3.16956 14.6532 3.14104 14.6258C3.11252 14.5985 3.09826 14.5652 3.09826 14.5261V10.7069C3.09826 10.6638 3.11049 10.6286 3.13493 10.6013C3.16345 10.5739 3.20011 10.5602 3.24493 10.5602H4.73603C5.93381 10.5602 6.54492 11.0921 6.56937 12.156C6.57754 12.3828 6.58159 12.5353 6.58159 12.6136C6.58159 12.6878 6.57754 12.8385 6.56937 13.0653C6.5531 13.6129 6.40032 14.0177 6.11103 14.2797C5.82175 14.5378 5.37365 14.6669 4.76659 14.6669H3.24493ZM4.73603 13.9922C5.07826 13.9922 5.32476 13.9198 5.47548 13.7752C5.62619 13.6265 5.70564 13.3841 5.71381 13.0477C5.72199 12.813 5.72604 12.6664 5.72604 12.6077C5.72604 12.5451 5.72199 12.4004 5.71381 12.1736C5.70564 11.8529 5.62008 11.6162 5.45715 11.4637C5.29826 11.3112 5.0477 11.2349 4.70548 11.2349H3.94771V13.9922H4.73603ZM12.3532 14.309C12.6628 14.5867 13.0987 14.7256 13.6609 14.7256C14.0235 14.7256 14.3393 14.6669 14.6082 14.5496C14.877 14.4283 15.0848 14.266 15.2315 14.0626C15.3782 13.8553 15.4555 13.6226 15.4637 13.3645C15.4678 13.3293 15.4555 13.3 15.427 13.2765C15.4026 13.253 15.372 13.2413 15.3354 13.2413H14.7548C14.7059 13.2413 14.6672 13.251 14.6387 13.2706C14.6143 13.2902 14.5959 13.3273 14.5837 13.3821C14.5226 13.6246 14.4147 13.7966 14.2598 13.8984C14.1091 14.0001 13.9074 14.0509 13.6548 14.0509C13.0682 14.0509 12.7626 13.7361 12.7382 13.1064C12.7341 12.9929 12.732 12.8267 12.732 12.6077C12.732 12.3886 12.7341 12.2264 12.7382 12.1208C12.7626 11.491 13.0682 11.1762 13.6548 11.1762C13.9074 11.1762 14.1091 11.227 14.2598 11.3288C14.4105 11.4265 14.5185 11.5986 14.5837 11.845C14.6 11.8998 14.6204 11.9369 14.6448 11.9565C14.6693 11.9761 14.7059 11.9858 14.7548 11.9858H15.3354C15.368 11.9858 15.3965 11.9761 15.4209 11.9565C15.4494 11.933 15.4637 11.9057 15.4637 11.8744V11.8626C15.4555 11.6045 15.3782 11.3737 15.2315 11.1704C15.0848 10.963 14.877 10.8008 14.6082 10.6834C14.3393 10.5622 14.0235 10.5016 13.6609 10.5016C13.1069 10.5016 12.673 10.6424 12.3593 10.924C12.0497 11.2017 11.8847 11.5908 11.8643 12.0914C11.8602 12.2009 11.8582 12.3769 11.8582 12.6194C11.8582 12.858 11.8602 13.0301 11.8643 13.1357C11.8847 13.6402 12.0476 14.0313 12.3532 14.309Z" fill="#CDCDD5"/>
</svg>
