<svg width="170" height="161" viewBox="0 0 170 161" fill="none" xmlns="http://www.w3.org/2000/svg">
<path d="M90.8092 160C132.48 160 166.275 126.46 166.275 85.0432C166.275 43.6261 132.48 10.0859 90.8092 10.0859C49.138 10.0859 15.3438 43.6261 15.3438 85.0432C15.3438 126.46 49.138 160 90.8092 160Z" fill="#F1F3F9" stroke="#D6DCE8" stroke-width="2" stroke-miterlimit="10"/>
<path d="M148.616 75.2601V121.124C148.616 130.652 140.866 138.402 131.21 138.402H50.6631C41.1347 138.402 33.3849 130.779 33.2578 121.251C33.2578 121.124 33.2578 121.124 33.2578 120.997V75.2601C33.2578 75.1331 33.2578 75.1331 33.2578 75.0061C33.2578 74.752 33.2578 74.4979 33.3849 74.2438C33.5119 73.8626 33.639 73.6085 33.766 73.2274L55.3638 31.9374C56.1261 30.2858 57.7777 29.3965 59.5564 29.3965H122.19C123.969 29.3965 125.493 30.2858 126.383 31.9374L147.98 73.2274C148.108 73.4815 148.235 73.8626 148.362 74.2438C148.616 74.4979 148.616 74.879 148.616 75.2601Z" fill="#F1F3F9" stroke="#D6DCE8" stroke-width="2" stroke-miterlimit="10"/>
<path d="M122.337 12.7129C123.995 30.8134 124.824 34.9585 121.07 51.351C119.85 54.9953 118.629 58.9868 116.013 61.7635C112.35 66.102 105.723 68.011 100.317 66.6226C94.7358 65.2343 90.2014 60.3751 89.155 54.4747C88.283 50.8303 89.5038 46.4918 92.643 44.2358C95.9566 42.1533 100.665 42.6739 103.456 45.277C106.595 47.8801 107.816 51.8716 107.641 55.6895C107.467 59.5074 106.072 63.3253 104.153 66.6226C99.8167 74.7302 98.0314 74.7005 89.155 88.0162" stroke="#B3BCCE" stroke-width="2" stroke-miterlimit="10" stroke-dasharray="4 4"/>
<path d="M132.062 5.97016C131.399 8.38887 128.748 9.26839 126.096 7.72922C123.224 6.40993 121.235 5.31052 121.677 3.1117C122.34 0.912875 124.991 0.692993 128.085 0.473111C131.841 0.0333466 132.504 3.55146 132.062 5.97016Z" fill="#DAE2EB"/>
<path d="M110.627 8.16934C111.732 10.1483 114.826 11.4676 117.035 9.48863C119.466 7.28981 121.455 5.75063 120.35 3.55181C119.245 1.57287 117.477 2.23252 113.721 2.67228C110.627 3.33193 109.301 5.97052 110.627 8.16934Z" fill="#DAE2EB"/>
<path d="M120.351 0.0336736C121.898 -0.186209 123.444 0.69332 123.886 2.01261C124.107 2.45238 124.328 3.11202 124.328 3.55179C124.77 6.63014 123.665 9.26872 121.898 9.48861C119.909 9.92837 117.92 7.72955 117.699 4.87108C117.699 3.99155 117.699 3.55179 117.699 2.89214C117.92 1.35297 118.804 0.253556 120.351 0.0336736C120.351 0.0336736 120.572 0.0336736 120.351 0.0336736Z" fill="#989FB0"/>
<path d="M148.616 75.2586V125.823C148.616 132.81 143.026 138.4 135.911 138.4H45.9624C38.9749 138.4 33.2578 132.81 33.2578 125.823V75.0045C33.2578 74.7504 33.2578 74.4963 33.3849 74.2422H62.3514C66.671 74.2422 70.2282 77.6724 70.2282 82.1191C70.2282 84.2788 71.1176 86.3116 72.5151 87.7091C74.0396 89.2336 75.8183 89.9959 78.1051 89.9959H103.895C108.215 89.9959 111.772 86.5657 111.772 82.1191C111.772 79.9593 112.662 77.9265 114.059 76.529C115.584 75.0045 117.362 74.2422 119.522 74.2422H148.362C148.616 74.4963 148.616 74.8774 148.616 75.2586Z" fill="white" stroke="#D6DCE8" stroke-width="2" stroke-miterlimit="10"/>
<path d="M76.4402 106.97C78.05 106.97 79.355 105.665 79.355 104.055C79.355 102.446 78.05 101.141 76.4402 101.141C74.8304 101.141 73.5254 102.446 73.5254 104.055C73.5254 105.665 74.8304 106.97 76.4402 106.97Z" fill="#989FB0"/>
<path d="M105.432 106.97C107.042 106.97 108.347 105.665 108.347 104.055C108.347 102.446 107.042 101.141 105.432 101.141C103.823 101.141 102.518 102.446 102.518 104.055C102.518 105.665 103.823 106.97 105.432 106.97Z" fill="#989FB0"/>
<path d="M95.6599 126.113H86.5216C85.1036 126.113 83.9219 124.932 83.9219 123.514C83.9219 122.096 85.1036 120.914 86.5216 120.914H95.5811C96.9991 120.914 98.1808 122.096 98.1808 123.514C98.2596 124.932 97.0779 126.113 95.6599 126.113Z" fill="#989FB0"/>
<path d="M164.34 49.2166C167.217 49.2166 169.549 46.8845 169.549 44.0077C169.549 41.1309 167.217 38.7988 164.34 38.7988C161.463 38.7988 159.131 41.1309 159.131 44.0077C159.131 46.8845 161.463 49.2166 164.34 49.2166Z" fill="#F1F3F9"/>
<path d="M159.135 32.3197C161.1 32.3197 162.693 30.727 162.693 28.7624C162.693 26.7977 161.1 25.2051 159.135 25.2051C157.171 25.2051 155.578 26.7977 155.578 28.7624C155.578 30.727 157.171 32.3197 159.135 32.3197Z" fill="#F1F3F9"/>
<path d="M15.0632 44.0072C17.0278 44.0072 18.6204 42.4145 18.6204 40.4499C18.6204 38.4852 17.0278 36.8926 15.0632 36.8926C13.0985 36.8926 11.5059 38.4852 11.5059 40.4499C11.5059 42.4145 13.0985 44.0072 15.0632 44.0072Z" fill="#F1F3F9"/>
<path d="M7.05953 122.267C10.7081 122.267 13.6659 119.31 13.6659 115.661C13.6659 112.012 10.7081 109.055 7.05953 109.055C3.41091 109.055 0.453125 112.012 0.453125 115.661C0.453125 119.31 3.41091 122.267 7.05953 122.267Z" fill="#F1F3F9"/>
</svg>
