<svg width="82" height="82" viewBox="0 0 82 82" fill="none" xmlns="http://www.w3.org/2000/svg">
<g opacity="0.6">
<path d="M50.8897 31.7676H30.6586C29.796 31.7676 29.0977 31.0716 29.0977 30.2119V2.55578C29.0977 1.69601 29.796 1 30.6586 1H50.8897C51.7524 1 52.4507 1.69601 52.4507 2.55578V30.2119C52.4507 31.0716 51.7524 31.7676 50.8897 31.7676Z" fill="#F1F3F9" stroke="#D6DCE8" stroke-miterlimit="10"/>
<path d="M43.4056 24.307H38.1476C37.5622 24.307 37.0898 23.8362 37.0898 23.2527C37.0898 22.6693 37.5622 22.1985 38.1476 22.1985H43.4056C43.991 22.1985 44.4634 22.6693 44.4634 23.2527C44.4634 23.8362 43.991 24.307 43.4056 24.307Z" fill="#D6DCE8"/>
<path d="M45.8175 26.5886H35.7225C35.4144 26.5886 35.168 26.343 35.168 26.0359C35.168 25.7288 35.4144 25.4832 35.7225 25.4832H45.8175C46.1256 25.4832 46.3721 25.7288 46.3721 26.0359C46.3721 26.3327 46.1256 26.5886 45.8175 26.5886Z" fill="#D6DCE8"/>
<path d="M47.6773 11.9722C47.6773 14.0398 46.7633 15.8924 45.3153 17.1513C44.1035 18.2056 42.5117 18.8402 40.7762 18.8402C39.0406 18.8402 37.4488 18.2056 36.237 17.1411C34.789 15.8821 33.875 14.0295 33.875 11.962C33.875 8.16463 36.9661 5.08377 40.7762 5.08377C44.5862 5.08377 47.6773 8.17486 47.6773 11.9722Z" fill="#F1F3F9" stroke="#D6DCE8" stroke-width="2" stroke-miterlimit="10"/>
<path d="M45.3127 17.1513C44.1009 18.2055 42.5091 18.8401 40.7735 18.8401C39.038 18.8401 37.4462 18.2055 36.2344 17.141C36.7376 16.9466 37.3948 16.6907 38.278 16.3324C38.4834 16.2506 38.6375 16.097 38.7299 15.9026C38.7812 15.79 38.8018 15.6774 38.8018 15.5545V13.9066C38.771 13.8759 38.7504 13.835 38.7299 13.8043C38.5861 13.5893 38.4937 13.3437 38.4629 13.0878L38.3191 13.0162C37.8981 13.1185 37.9289 12.6682 37.8159 11.7982C37.7748 11.4399 37.8262 11.3683 37.9905 11.3069L38.124 11.1226C37.3024 9.28024 37.7132 8.12364 38.5245 7.71423C38.2575 7.13081 38.2369 6.91586 38.2369 6.91586C38.2369 6.91586 39.9622 7.20245 40.5476 7.08986C41.2973 6.93633 42.4577 7.12057 42.8891 8.11341C43.6079 8.38976 43.8852 8.85036 43.9468 9.33142C44.0085 9.78178 43.875 10.2731 43.7414 10.6518C43.7312 10.6825 43.7209 10.703 43.7106 10.7234C43.7106 10.7337 43.7004 10.7439 43.7004 10.7541C43.6798 10.8053 43.6696 10.8463 43.649 10.8872C43.6388 10.9077 43.6388 10.9281 43.6285 10.9486C43.6182 10.9896 43.5977 11.0305 43.5874 11.0612C43.5874 11.0714 43.5874 11.0714 43.5771 11.0817C43.5669 11.1124 43.5566 11.1431 43.5463 11.1738C43.5361 11.2147 43.5258 11.2454 43.5155 11.2761C43.5258 11.2864 43.5258 11.3069 43.5361 11.3171C43.649 11.3683 43.6901 11.4706 43.649 11.7879C43.5463 12.617 43.5771 13.1185 43.1458 13.0059L42.7658 13.661C42.7556 13.7326 42.7453 13.7736 42.735 13.8145C42.7248 13.9374 42.7248 14.183 42.7248 15.5341C42.7248 15.6978 42.7761 15.8514 42.8583 15.9844C42.9507 16.1277 43.0842 16.2506 43.2485 16.3222C43.2485 16.3222 43.2588 16.3222 43.2588 16.3324C44.1522 16.7111 44.8095 16.9568 45.3127 17.1513Z" fill="white" stroke="#D6DCE8" stroke-width="2" stroke-miterlimit="10"/>
<path d="M43.5245 11.2858C43.5553 11.0811 43.4629 10.815 43.391 10.641C43.3808 10.6103 43.3602 10.5796 43.35 10.5489C43.0213 9.89382 42.2819 9.61746 41.5836 9.57652C39.7967 9.4844 39.6221 9.82217 39.0675 9.3104C39.2421 9.56629 39.2524 9.98594 38.9854 10.4977C38.8005 10.8559 38.4411 11.0197 38.1125 11.1221C37.2909 9.27969 37.7017 8.12309 38.513 7.71368C38.246 7.13026 38.2254 6.91531 38.2254 6.91531C38.2254 6.91531 39.9507 7.2019 40.5361 7.08932C41.2858 6.93578 42.4462 7.12002 42.8776 8.11286C43.5964 8.38921 43.8737 8.84981 43.9353 9.33087C44.0586 10.0985 43.6067 10.9481 43.5245 11.2858Z" fill="url(#paint0_linear_5111_114652)"/>
<path d="M38.7906 13.9069C38.7598 13.8762 38.7393 13.8353 38.7188 13.8046V13.7022C38.8112 13.8558 38.9241 13.9888 39.0576 14.1117L40.3516 15.0226C40.6494 15.2785 41.091 15.2785 41.3991 15.0328L42.6109 13.9479C42.652 13.9172 42.6931 13.8762 42.7342 13.8353" stroke="#D6DCE8" stroke-width="2" stroke-miterlimit="10"/>
<path d="M50.8897 80.9998H30.6586C29.796 80.9998 29.0977 80.3038 29.0977 79.444V51.788C29.0977 50.9282 29.796 50.2322 30.6586 50.2322H50.8897C51.7524 50.2322 52.4507 50.9282 52.4507 51.788V79.444C52.4507 80.3038 51.7524 80.9998 50.8897 80.9998Z" fill="#F1F3F9" stroke="#D6DCE8" stroke-miterlimit="10"/>
<path d="M43.4056 73.5392H38.1476C37.5622 73.5392 37.0898 73.0683 37.0898 72.4849C37.0898 71.9015 37.5622 71.4307 38.1476 71.4307H43.4056C43.991 71.4307 44.4634 71.9015 44.4634 72.4849C44.4634 73.0683 43.991 73.5392 43.4056 73.5392Z" fill="#D6DCE8"/>
<path d="M45.8175 75.8208H35.7225C35.4144 75.8208 35.168 75.5751 35.168 75.2681C35.168 74.961 35.4144 74.7154 35.7225 74.7154H45.8175C46.1256 74.7154 46.3721 74.961 46.3721 75.2681C46.3721 75.5649 46.1256 75.8208 45.8175 75.8208Z" fill="#D6DCE8"/>
<path d="M47.6773 61.2044C47.6773 63.2719 46.7633 65.1245 45.3153 66.3835C44.1035 67.4377 42.5117 68.0723 40.7762 68.0723C39.0406 68.0723 37.4488 67.4377 36.237 66.3733C34.789 65.1143 33.875 63.2617 33.875 61.1941C33.875 57.3968 36.9661 54.3159 40.7762 54.3159C44.5862 54.3159 47.6773 57.407 47.6773 61.2044Z" fill="#F1F3F9" stroke="#D6DCE8" stroke-width="2" stroke-miterlimit="10"/>
<path d="M45.3127 66.3834C44.1009 67.4376 42.5091 68.0722 40.7735 68.0722C39.038 68.0722 37.4462 67.4376 36.2344 66.3732C36.7376 66.1787 37.3948 65.9228 38.278 65.5646C38.4834 65.4827 38.6375 65.3291 38.7299 65.1347C38.7812 65.0221 38.8018 64.9095 38.8018 64.7867V63.1388C38.771 63.1081 38.7504 63.0671 38.7299 63.0364C38.5861 62.8215 38.4937 62.5758 38.4629 62.3199L38.3191 62.2483C37.8981 62.3506 37.9289 61.9003 37.8159 61.0303C37.7748 60.672 37.8262 60.6004 37.9905 60.539L38.124 60.3547C37.3024 58.5124 37.7132 57.3558 38.5245 56.9463C38.2575 56.3629 38.2369 56.148 38.2369 56.148C38.2369 56.148 39.9622 56.4346 40.5476 56.322C41.2973 56.1685 42.4577 56.3527 42.8891 57.3455C43.6079 57.6219 43.8852 58.0825 43.9468 58.5635C44.0085 59.0139 43.875 59.5052 43.7414 59.8839C43.7312 59.9146 43.7209 59.9351 43.7106 59.9556C43.7106 59.9658 43.7004 59.976 43.7004 59.9863C43.6798 60.0374 43.6696 60.0784 43.649 60.1193C43.6388 60.1398 43.6388 60.1603 43.6285 60.1807C43.6182 60.2217 43.5977 60.2626 43.5874 60.2933C43.5874 60.3036 43.5874 60.3036 43.5771 60.3138C43.5669 60.3445 43.5566 60.3752 43.5463 60.4059C43.5361 60.4469 43.5258 60.4776 43.5155 60.5083C43.5258 60.5185 43.5258 60.539 43.5361 60.5492C43.649 60.6004 43.6901 60.7027 43.649 61.02C43.5463 61.8491 43.5771 62.3506 43.1458 62.238L42.7658 62.8931C42.7556 62.9648 42.7453 63.0057 42.735 63.0466C42.7248 63.1695 42.7248 63.4151 42.7248 64.7662C42.7248 64.93 42.7761 65.0835 42.8583 65.2166C42.9507 65.3598 43.0842 65.4827 43.2485 65.5543C43.2485 65.5543 43.2588 65.5543 43.2588 65.5646C44.1522 65.9433 44.8095 66.1889 45.3127 66.3834Z" fill="white" stroke="#D6DCE8" stroke-width="2" stroke-miterlimit="10"/>
<path d="M43.5245 60.5185C43.5553 60.3138 43.4629 60.0477 43.391 59.8737C43.3808 59.843 43.3602 59.8123 43.35 59.7816C43.0213 59.1265 42.2819 58.8502 41.5836 58.8092C39.7967 58.7171 39.6221 59.0549 39.0675 58.5431C39.2421 58.799 39.2524 59.2186 38.9854 59.7304C38.8005 60.0886 38.4411 60.2524 38.1125 60.3548C37.2909 58.5124 37.7017 57.3558 38.513 56.9464C38.246 56.363 38.2254 56.148 38.2254 56.148C38.2254 56.148 39.9507 56.4346 40.5361 56.322C41.2858 56.1685 42.4462 56.3527 42.8776 57.3456C43.5964 57.6219 43.8737 58.0825 43.9353 58.5636C44.0586 59.3312 43.6067 60.1808 43.5245 60.5185Z" fill="url(#paint1_linear_5111_114652)"/>
<path d="M38.7906 63.1388C38.7598 63.1081 38.7393 63.0671 38.7188 63.0364V62.9341C38.8112 63.0876 38.9241 63.2206 39.0576 63.3435L40.3516 64.2544C40.6494 64.5103 41.091 64.5103 41.3991 64.2647L42.6109 63.1797C42.652 63.149 42.6931 63.1081 42.7342 63.0671" stroke="#D6DCE8" stroke-width="2" stroke-miterlimit="10"/>
<path d="M79.4405 80.9998H59.2094C58.3468 80.9998 57.6484 80.3038 57.6484 79.444V51.788C57.6484 50.9282 58.3468 50.2322 59.2094 50.2322H79.4405C80.3032 50.2322 81.0015 50.9282 81.0015 51.788V79.444C81.0015 80.3038 80.3032 80.9998 79.4405 80.9998Z" fill="#F1F3F9" stroke="#D6DCE8" stroke-miterlimit="10"/>
<path d="M71.9525 73.5392H66.6945C66.1091 73.5392 65.6367 73.0683 65.6367 72.4849C65.6367 71.9015 66.1091 71.4307 66.6945 71.4307H71.9525C72.5379 71.4307 73.0103 71.9015 73.0103 72.4849C73.0103 73.0683 72.5379 73.5392 71.9525 73.5392Z" fill="#D6DCE8"/>
<path d="M74.3683 75.8208H64.2733C63.9652 75.8208 63.7188 75.5751 63.7188 75.2681C63.7188 74.961 63.9652 74.7154 64.2733 74.7154H74.3683C74.6764 74.7154 74.9229 74.961 74.9229 75.2681C74.9229 75.5649 74.6764 75.8208 74.3683 75.8208Z" fill="#D6DCE8"/>
<path d="M76.2242 61.2044C76.2242 63.2719 75.3102 65.1245 73.8622 66.3835C72.6504 67.4377 71.0586 68.0723 69.323 68.0723C67.5875 68.0723 65.9957 67.4377 64.7839 66.3733C63.3359 65.1143 62.4219 63.2617 62.4219 61.1941C62.4219 57.3968 65.513 54.3159 69.323 54.3159C73.1331 54.3159 76.2242 57.407 76.2242 61.2044Z" fill="#F1F3F9" stroke="#D6DCE8" stroke-width="2" stroke-miterlimit="10"/>
<path d="M73.8635 66.3834C72.6517 67.4376 71.0599 68.0722 69.3243 68.0722C67.5888 68.0722 65.997 67.4376 64.7852 66.3732C65.2884 66.1787 65.9456 65.9228 66.8288 65.5646C67.0342 65.4827 67.1882 65.3291 67.2807 65.1347C67.332 65.0221 67.3526 64.9095 67.3526 64.7867V63.1388C67.3217 63.1081 67.3012 63.0671 67.2807 63.0364C67.1369 62.8215 67.0445 62.5758 67.0137 62.3199L66.8699 62.2483C66.4488 62.3506 66.4796 61.9003 66.3667 61.0303C66.3256 60.672 66.3769 60.6004 66.5413 60.539L66.6748 60.3547C65.8532 58.5124 66.264 57.3558 67.0753 56.9463C66.8083 56.3629 66.7877 56.148 66.7877 56.148C66.7877 56.148 68.513 56.4346 69.0984 56.322C69.8481 56.1685 71.0085 56.3527 71.4399 57.3455C72.1587 57.6219 72.436 58.0825 72.4976 58.5635C72.5592 59.0139 72.4257 59.5052 72.2922 59.8839C72.282 59.9146 72.2717 59.9351 72.2614 59.9556C72.2614 59.9658 72.2512 59.976 72.2512 59.9863C72.2306 60.0374 72.2203 60.0784 72.1998 60.1193C72.1895 60.1398 72.1895 60.1603 72.1793 60.1807C72.169 60.2217 72.1485 60.2626 72.1382 60.2933C72.1382 60.3036 72.1382 60.3036 72.1279 60.3138C72.1176 60.3445 72.1074 60.3752 72.0971 60.4059C72.0868 60.4469 72.0766 60.4776 72.0663 60.5083C72.0766 60.5185 72.0766 60.539 72.0868 60.5492C72.1998 60.6004 72.2409 60.7027 72.1998 61.02C72.0971 61.8491 72.1279 62.3506 71.6966 62.238L71.3166 62.8931C71.3063 62.9648 71.2961 63.0057 71.2858 63.0466C71.2755 63.1695 71.2755 63.4151 71.2755 64.7662C71.2755 64.93 71.3269 65.0835 71.409 65.2166C71.5015 65.3598 71.635 65.4827 71.7993 65.5543C71.7993 65.5543 71.8096 65.5543 71.8096 65.5646C72.703 65.9433 73.3603 66.1889 73.8635 66.3834Z" fill="white" stroke="#D6DCE8" stroke-width="2" stroke-miterlimit="10"/>
<path d="M72.0792 60.5185C72.11 60.3138 72.0176 60.0477 71.9457 59.8737C71.9354 59.843 71.9149 59.8123 71.9046 59.7816C71.576 59.1265 70.8366 58.8502 70.1383 58.8092C68.3514 58.7171 68.1768 59.0549 67.6222 58.5431C67.7968 58.799 67.8071 59.2186 67.5401 59.7304C67.3552 60.0886 66.9958 60.2524 66.6671 60.3548C65.8456 58.5124 66.2564 57.3558 67.0677 56.9464C66.8007 56.363 66.7801 56.148 66.7801 56.148C66.7801 56.148 68.5054 56.4346 69.0908 56.322C69.8405 56.1685 71.0009 56.3527 71.4322 57.3456C72.1511 57.6219 72.4284 58.0825 72.49 58.5636C72.6132 59.3312 72.1614 60.1808 72.0792 60.5185Z" fill="url(#paint2_linear_5111_114652)"/>
<path d="M67.3414 63.1388C67.3106 63.1081 67.2901 63.0671 67.2695 63.0364V62.9341C67.362 63.0876 67.4749 63.2206 67.6084 63.3435L68.9024 64.2544C69.2002 64.5103 69.6418 64.5103 69.9499 64.2647L71.1617 63.1797C71.2028 63.149 71.2439 63.1081 71.2849 63.0671" stroke="#D6DCE8" stroke-width="2" stroke-miterlimit="10"/>
<path d="M22.7921 80.9998H2.56098C1.69833 80.9998 1 80.3038 1 79.444V51.788C1 50.9282 1.69833 50.2322 2.56098 50.2322H22.7921C23.6547 50.2322 24.3531 50.9282 24.3531 51.788V79.444C24.3531 80.3038 23.6547 80.9998 22.7921 80.9998Z" fill="#F1F3F9" stroke="#D6DCE8" stroke-miterlimit="10"/>
<path d="M15.308 73.5392H10.05C9.46459 73.5392 8.99219 73.0683 8.99219 72.4849C8.99219 71.9015 9.46459 71.4307 10.05 71.4307H15.308C15.8934 71.4307 16.3658 71.9015 16.3658 72.4849C16.3658 73.0683 15.8934 73.5392 15.308 73.5392Z" fill="#D6DCE8"/>
<path d="M17.7199 75.8208H7.62487C7.31678 75.8208 7.07031 75.5751 7.07031 75.2681C7.07031 74.961 7.31678 74.7154 7.62487 74.7154H17.7199C18.028 74.7154 18.2744 74.961 18.2744 75.2681C18.2744 75.5649 18.028 75.8208 17.7199 75.8208Z" fill="#D6DCE8"/>
<path d="M19.5797 61.2044C19.5797 63.2719 18.6657 65.1245 17.2177 66.3835C16.0059 67.4377 14.4141 68.0723 12.6785 68.0723C10.9429 68.0723 9.35116 67.4377 8.13935 66.3733C6.69134 65.1143 5.77734 63.2617 5.77734 61.1941C5.77734 57.3968 8.86849 54.3159 12.6785 54.3159C16.4885 54.3159 19.5797 57.407 19.5797 61.2044Z" fill="#F1F3F9" stroke="#D6DCE8" stroke-width="2" stroke-miterlimit="10"/>
<path d="M17.215 66.3834C16.0032 67.4376 14.4114 68.0722 12.6759 68.0722C10.9403 68.0722 9.34853 67.4376 8.13672 66.3732C8.63993 66.1787 9.29719 65.9228 10.1804 65.5646C10.3858 65.4827 10.5398 65.3291 10.6322 65.1347C10.6836 65.0221 10.7041 64.9095 10.7041 64.7867V63.1388C10.6733 63.1081 10.6528 63.0671 10.6322 63.0364C10.4885 62.8215 10.396 62.5758 10.3652 62.3199L10.2214 62.2483C9.80039 62.3506 9.8312 61.9003 9.71824 61.0303C9.67716 60.672 9.72851 60.6004 9.89282 60.539L10.0263 60.3547C9.20476 58.5124 9.61554 57.3558 10.4268 56.9463C10.1598 56.3629 10.1393 56.148 10.1393 56.148C10.1393 56.148 11.8646 56.4346 12.4499 56.322C13.1996 56.1685 14.3601 56.3527 14.7914 57.3455C15.5103 57.6219 15.7876 58.0825 15.8492 58.5635C15.9108 59.0139 15.7773 59.5052 15.6438 59.8839C15.6335 59.9146 15.6233 59.9351 15.613 59.9556C15.613 59.9658 15.6027 59.976 15.6027 59.9863C15.5822 60.0374 15.5719 60.0784 15.5514 60.1193C15.5411 60.1398 15.5411 60.1603 15.5308 60.1807C15.5206 60.2217 15.5 60.2626 15.4897 60.2933C15.4897 60.3036 15.4897 60.3036 15.4795 60.3138C15.4692 60.3445 15.4589 60.3752 15.4487 60.4059C15.4384 60.4469 15.4281 60.4776 15.4179 60.5083C15.4281 60.5185 15.4281 60.539 15.4384 60.5492C15.5514 60.6004 15.5924 60.7027 15.5514 61.02C15.4487 61.8491 15.4795 62.3506 15.0482 62.238L14.6682 62.8931C14.6579 62.9648 14.6476 63.0057 14.6374 63.0466C14.6271 63.1695 14.6271 63.4151 14.6271 64.7662C14.6271 64.93 14.6784 65.0835 14.7606 65.2166C14.853 65.3598 14.9865 65.4827 15.1509 65.5543C15.1509 65.5543 15.1611 65.5543 15.1611 65.5646C16.0546 65.9433 16.7118 66.1889 17.215 66.3834Z" fill="white" stroke="#D6DCE8" stroke-width="2" stroke-miterlimit="10"/>
<path d="M15.4269 60.5185C15.4577 60.3138 15.3653 60.0477 15.2934 59.8737C15.2831 59.843 15.2626 59.8123 15.2523 59.7816C14.9237 59.1265 14.1843 58.8502 13.4859 58.8092C11.699 58.7171 11.5244 59.0549 10.9699 58.5431C11.1445 58.799 11.1547 59.2186 10.8877 59.7304C10.7029 60.0886 10.3434 60.2524 10.0148 60.3548C9.19324 58.5124 9.60402 57.3558 10.4153 56.9464C10.1483 56.363 10.1278 56.148 10.1278 56.148C10.1278 56.148 11.8531 56.4346 12.4384 56.322C13.1881 56.1685 14.3486 56.3527 14.7799 57.3456C15.4988 57.6219 15.776 58.0825 15.8377 58.5636C15.9609 59.3312 15.509 60.1808 15.4269 60.5185Z" fill="url(#paint3_linear_5111_114652)"/>
<path d="M10.693 63.1388C10.6622 63.1081 10.6416 63.0671 10.6211 63.0364V62.9341C10.7135 63.0876 10.8265 63.2206 10.96 63.3435L12.254 64.2544C12.5518 64.5103 12.9934 64.5103 13.3015 64.2647L14.5133 63.1797C14.5543 63.149 14.5954 63.1081 14.6365 63.0671" stroke="#D6DCE8" stroke-width="2" stroke-miterlimit="10"/>
<path d="M12.7852 50.2311L12.7852 40.7461H69.4321V50.2311M41.0327 50.2311V32.1645" stroke="#D6DCE8" stroke-width="2"/>
</g>
<defs>
<linearGradient id="paint0_linear_5111_114652" x1="37.6612" y1="9.10105" x2="43.9576" y2="9.10105" gradientUnits="userSpaceOnUse">
<stop stop-color="#B0BACC"/>
<stop offset="1" stop-color="#969EAE"/>
</linearGradient>
<linearGradient id="paint1_linear_5111_114652" x1="37.6612" y1="58.3337" x2="43.9576" y2="58.3337" gradientUnits="userSpaceOnUse">
<stop stop-color="#B0BACC"/>
<stop offset="1" stop-color="#969EAE"/>
</linearGradient>
<linearGradient id="paint2_linear_5111_114652" x1="66.2159" y1="58.3337" x2="72.5123" y2="58.3337" gradientUnits="userSpaceOnUse">
<stop stop-color="#B0BACC"/>
<stop offset="1" stop-color="#969EAE"/>
</linearGradient>
<linearGradient id="paint3_linear_5111_114652" x1="9.56352" y1="58.3337" x2="15.86" y2="58.3337" gradientUnits="userSpaceOnUse">
<stop stop-color="#B0BACC"/>
<stop offset="1" stop-color="#969EAE"/>
</linearGradient>
</defs>
</svg>
