<svg width="98" height="103" viewBox="0 0 98 103" fill="none" xmlns="http://www.w3.org/2000/svg">
<g opacity="0.7">
<rect x="17.6348" y="4" width="34" height="64" fill="#F1F3F9"/>
<rect x="2" y="69" width="11" height="33" fill="#F1F3F9"/>
<circle cx="35" cy="36" r="10" fill="white"/>
<path d="M75.6348 13H81.6348V66H73.6348L75.6348 61V13Z" fill="#F1F3F9"/>
<path d="M69.1348 13H51.6348V66H71.6348L69.1348 61V13Z" fill="#F1F3F9"/>
<path d="M22.5368 6.79724L22.5086 6.79827C21.8753 6.82155 21.3001 7.17285 20.9899 7.72565C20.6801 8.27848 20.6802 8.95258 20.9899 9.50485L22.5368 6.79724ZM22.5368 6.79724L22.5369 6.79715M22.5368 6.79724L22.5369 6.79715M22.5369 6.79715C23.008 6.8054 23.4577 6.996 23.7912 7.3303C24.1314 7.67187 24.322 8.13423 24.3211 8.61625C24.3202 9.09782 24.1282 9.55934 23.7875 9.90004C23.4475 10.2396 22.987 10.4311 22.5062 10.4327C21.8738 10.4081 21.2997 10.057 20.9899 9.50488L22.5369 6.79715ZM22.5004 12.0221L22.5004 12.0223L22.5076 12.0221C23.7013 11.9879 24.7903 11.3314 25.3778 10.291L25.3778 10.291C25.9648 9.25124 25.9648 7.97946 25.3778 6.93962L25.3778 6.93958C24.7903 5.8998 23.7013 5.2428 22.5075 5.20903L22.5075 5.20883L22.5005 5.20903C21.3067 5.24272 20.2176 5.89977 19.6302 6.93958L19.6302 6.93962C19.0432 7.97938 19.0432 9.25115 19.6302 10.291L19.6302 10.291C20.2176 11.3313 21.3066 11.9878 22.5004 12.0221Z" fill="#D6DCE8" stroke="#D6DCE8" stroke-width="0.25"/>
<path d="M43.6058 10.291L43.6057 10.291C43.0188 9.25115 43.0188 7.97938 43.6058 6.93962L43.6058 6.93958C44.1932 5.89977 45.2823 5.24272 46.476 5.20903L46.4797 5.20893V5.20898C47.3849 5.20998 48.2524 5.57048 48.8911 6.21156L43.6058 10.291ZM43.6058 10.291C44.182 11.3115 45.2409 11.9627 46.4079 12.0194L46.4097 12.0223L46.4798 12.0222C47.381 12.0207 48.245 11.6632 48.8831 11.0271C49.5217 10.391 49.8822 9.52792 49.8862 8.62666L49.8862 8.62638M43.6058 10.291L49.8862 8.62638M49.8862 8.62638C49.8882 7.72114 49.5302 6.85265 48.8911 6.21159L49.8862 8.62638ZM44.9655 7.72565C44.6557 8.27848 44.6558 8.95258 44.9655 9.50485L44.9655 7.72565ZM44.9655 7.72565C45.275 7.17419 45.8481 6.82325 46.4796 6.79845M44.9655 7.72565L46.4796 6.79845M46.4796 6.79845C47.1111 6.82325 47.6842 7.1742 47.9936 7.72565C48.3034 8.27846 48.3034 8.95257 47.9937 9.50488C47.6842 10.0563 47.1111 10.4073 46.4796 10.4326C45.848 10.4073 45.2749 10.0563 44.9655 9.50488L46.4796 6.79845Z" fill="#D6DCE8" stroke="#D6DCE8" stroke-width="0.25"/>
<path d="M22.5368 61.0433L22.5086 61.0444C21.8753 61.0676 21.3001 61.4189 20.9899 61.9717C20.6801 62.5246 20.6802 63.1987 20.9899 63.7509L22.5368 61.0433ZM22.5368 61.0433L22.5369 61.0432M22.5368 61.0433L22.5369 61.0432M22.5369 61.0432C23.0081 61.0515 23.4577 61.2421 23.7912 61.5764C24.1314 61.918 24.322 62.3803 24.3211 62.8623C24.3202 63.3439 24.1282 63.8054 23.7875 64.1461C23.4475 64.4857 22.987 64.6772 22.5062 64.6788C21.8738 64.6542 21.2997 64.3031 20.9899 63.751L22.5369 61.0432ZM22.5004 66.2682L22.5004 66.2684L22.5076 66.2682C23.7013 66.234 24.7903 65.5774 25.3778 64.5371L25.3778 64.5371C25.9648 63.4973 25.9648 62.2256 25.3778 61.1857L25.3778 61.1857C24.7903 60.1459 23.7013 59.4889 22.5075 59.4551L22.5075 59.4549L22.5005 59.4551C21.3067 59.4888 20.2176 60.1459 19.6302 61.1857L19.6302 61.1857C19.0432 62.2255 19.0432 63.4972 19.6302 64.5371L19.6302 64.5371C20.2176 65.5774 21.3066 66.2339 22.5004 66.2682Z" fill="#D6DCE8" stroke="#D6DCE8" stroke-width="0.25"/>
<path d="M43.6058 64.5371L43.6057 64.5371C43.0188 63.4972 43.0188 62.2255 43.6058 61.1857L43.6058 61.1857C44.1932 60.1459 45.2823 59.4888 46.476 59.4551L46.4797 59.455V59.4551C47.3849 59.4561 48.2524 59.8166 48.8911 60.4577L43.6058 64.5371ZM43.6058 64.5371C44.1821 65.5577 45.2411 66.2089 46.4082 66.2655L46.41 66.2684L46.4798 66.2683C47.381 66.2668 48.245 65.9093 48.8831 65.2732C49.5217 64.6371 49.8822 63.774 49.8862 62.8728L49.8862 62.8725M43.6058 64.5371L49.8862 62.8725M49.8862 62.8725C49.8882 61.9672 49.5302 61.0987 48.8911 60.4577L49.8862 62.8725ZM44.9655 61.9717C44.6557 62.5246 44.6558 63.1987 44.9655 63.7509L44.9655 61.9717ZM44.9655 61.9717C45.275 61.4203 45.8481 61.0693 46.4796 61.0445M44.9655 61.9717L46.4796 61.0445M46.4796 61.0445C47.1111 61.0693 47.6842 61.4203 47.9936 61.9717C48.3034 62.5246 48.3034 63.1987 47.9937 63.751C47.6842 64.3024 47.1111 64.6534 46.4796 64.6787C45.848 64.6534 45.2749 64.3024 44.9655 63.751L46.4796 61.0445Z" fill="#D6DCE8" stroke="#D6DCE8" stroke-width="0.25"/>
<path d="M17.4476 68.7583H51.7371C51.9476 68.7583 52.1498 68.6748 52.299 68.5255C52.4483 68.3762 52.5318 68.1741 52.5318 67.9635V3.6707C52.5318 3.46013 52.4483 3.25801 52.299 3.10872C52.1497 2.95942 51.9476 2.87598 51.7371 2.87598H17.4476C17.0087 2.87598 16.6528 3.23189 16.6528 3.6707V67.9635C16.6528 68.4024 17.0087 68.7583 17.4476 68.7583ZM50.9422 4.46567V67.1688H18.2424V4.46567H50.9422Z" fill="#D6DCE8" stroke="#D6DCE8" stroke-width="0.25"/>
<path d="M88.1231 6.2518C89.8479 6.2518 91.2462 4.85228 91.2462 3.1259C91.2462 1.39951 89.8479 0 88.1231 0C86.3983 0 85 1.39951 85 3.1259C85 4.85228 86.3983 6.2518 88.1231 6.2518Z" fill="#EAEEF9"/>
<path d="M3.05467 34.113C4.18944 34.113 5.10935 33.1923 5.10935 32.0565C5.10935 30.9207 4.18944 30 3.05467 30C1.91991 30 1 30.9207 1 32.0565C1 33.1923 1.91991 34.113 3.05467 34.113Z" fill="#EAEEF9"/>
<path d="M13.1096 14.7884H11.3212V13H9.78836V14.7884H8V16.3723H9.78836V18.1607H11.3212V16.3723H13.1096V14.7884Z" fill="#AAB2C5"/>
<path d="M14.1096 56.7884H12.3212V55H10.7884V56.7884H9V58.3723H10.7884V60.1607H12.3212V58.3723H14.1096V56.7884Z" fill="#AAB2C5"/>
<path d="M96.0776 52.7585L93.8895 51.6538L94.9942 49.4657L93.1187 48.5188L92.014 50.7069L89.8259 49.6021L88.8475 51.5402L91.0355 52.6449L89.9308 54.833L91.8063 55.7799L92.911 53.5918L95.0991 54.6965L96.0776 52.7585Z" fill="#AAB2C5"/>
<path d="M71.036 66.6148H71.161V66.6047C71.5408 66.5448 71.8307 66.216 71.8307 65.8197C71.8307 65.381 71.4753 65.025 71.036 65.025H52.532V13.4391H69.0154C69.4542 13.4391 69.8101 13.0832 69.8101 12.6443C69.8101 12.2055 69.4542 11.8496 69.0154 11.8496H51.7371C51.2983 11.8496 50.9424 12.2055 50.9424 12.6443V65.82C50.9424 66.2589 51.2983 66.6148 51.7371 66.6148H71.036Z" fill="#D6DCE8" stroke="#D6DCE8" stroke-width="0.25"/>
<path d="M75.4216 13.4391H81.0792V65.025H73.3455C72.9067 65.025 72.5508 65.3809 72.5508 65.8197C72.5508 66.2586 72.9067 66.6145 73.3455 66.6145H81.7489V66.6148H81.8739C82.0845 66.6148 82.2866 66.5313 82.4359 66.382C82.5852 66.2327 82.6686 66.0306 82.6686 65.82V12.6443C82.6686 12.4338 82.5852 12.2316 82.4359 12.0824L82.3475 12.1707L82.4359 12.0824C82.2866 11.9331 82.0845 11.8496 81.8739 11.8496H75.4216C74.9828 11.8496 74.6269 12.2055 74.6269 12.6443C74.6269 13.0832 74.9828 13.4391 75.4216 13.4391Z" fill="#D6DCE8" stroke="#D6DCE8" stroke-width="0.25"/>
<path d="M69.283 61.9254H75.0425C75.4814 61.9254 75.8373 61.5695 75.8373 61.1307C75.8373 60.6918 75.4813 60.3359 75.0425 60.3359H69.283C68.8442 60.3359 68.4883 60.6918 68.4883 61.1307C68.4883 61.5695 68.8442 61.9254 69.283 61.9254Z" fill="#D6DCE8" stroke="#D6DCE8" stroke-width="0.25"/>
<path d="M69.283 45.1842H75.0425C75.4814 45.1842 75.8373 44.8283 75.8373 44.3894C75.8373 43.9506 75.4813 43.5947 75.0425 43.5947H69.283C68.8442 43.5947 68.4883 43.9506 68.4883 44.3894C68.4883 44.8283 68.8442 45.1842 69.283 45.1842Z" fill="#D6DCE8" stroke="#D6DCE8" stroke-width="0.25"/>
<path d="M69.283 15.8492H75.0425C75.4814 15.8492 75.8373 15.4933 75.8373 15.0545C75.8373 14.6157 75.4814 14.2598 75.0425 14.2598H69.283C68.8442 14.2598 68.4883 14.6157 68.4883 15.0545C68.4883 15.4933 68.8442 15.8492 69.283 15.8492Z" fill="#D6DCE8" stroke="#D6DCE8" stroke-width="0.25"/>
<path d="M68.3545 61.2795C68.354 61.3933 68.3784 61.5059 68.4262 61.6094C68.4262 61.6095 68.4262 61.6095 68.4263 61.6096L71.5066 68.3931L71.5067 68.3932L68.4795 61.2798M68.3545 61.2795C68.3545 61.2794 68.3545 61.2793 68.3545 61.2792L68.4795 61.2798M68.3545 61.2795V61.2798H68.4795M68.3545 61.2795V7.55547C68.3545 7.11666 68.7104 6.76074 69.1492 6.76074H75.3106C75.5211 6.76074 75.7232 6.84419 75.8725 6.99349L75.7841 7.08188C75.6583 6.95606 75.488 6.88574 75.3106 6.88574H69.1492C68.7794 6.88574 68.4795 7.18569 68.4795 7.55547V61.2798M76.1053 61.2795C76.1053 61.2794 76.1053 61.2793 76.1053 61.2792L75.9803 61.2798H76.1053V61.2795ZM76.1053 61.2795C76.1058 61.3932 76.0814 61.5058 76.0337 61.6093L76.0338 61.6089L75.92 61.5572L76.0335 61.6096L76.1053 61.2795ZM74.5159 61.1054L72.2299 66.1395L69.9438 61.1054L69.944 8.34993H74.5159V61.1054Z" fill="#D6DCE8" stroke="#D6DCE8" stroke-width="0.25"/>
<path d="M73.5781 7.42014C73.5781 7.85897 73.934 8.21486 74.3729 8.21486H74.3729C74.5835 8.21486 74.7856 8.1314 74.9349 7.98212L74.8465 7.89373L74.9349 7.98211C75.0842 7.83281 75.1676 7.63071 75.1676 7.42014V3.66972C75.1676 3.45916 75.0842 3.25704 74.9349 3.10775L74.8465 3.19614L74.9349 3.10775C74.7856 2.95845 74.5835 2.875 74.3729 2.875H70.0867C69.6479 2.875 69.292 3.23091 69.292 3.66972V7.42014C69.292 7.85896 69.6479 8.21486 70.0867 8.21486C70.5255 8.21486 70.8814 7.85895 70.8814 7.42014V4.46447H73.5781V7.42014Z" fill="#D6DCE8" stroke="#D6DCE8" stroke-width="0.25"/>
<path d="M34.6593 46.5901H34.6595C37.5336 46.5868 40.2888 45.4437 42.3213 43.4116L42.3213 43.4116C44.3533 41.3791 45.4964 38.6239 45.4998 35.7498V35.7497C45.4998 32.8745 44.3576 30.1174 42.3246 28.0844C40.2915 26.0513 37.5345 24.9092 34.6593 24.9092C31.7842 24.9092 29.0271 26.0513 26.9941 28.0844C24.961 30.1174 23.8188 32.8745 23.8188 35.7497C23.8188 38.6248 24.961 41.3819 26.9941 43.4149C29.0271 45.448 31.7842 46.5901 34.6593 46.5901ZM28.1179 29.2087L28.118 29.2086C29.8436 27.4826 32.1815 26.509 34.6212 26.499L34.6593 26.499C37.1118 26.5018 39.4633 27.4774 41.1979 29.2116C42.932 30.9461 43.9076 33.2976 43.9104 35.7502C43.9104 38.2036 42.9357 40.5569 41.2007 42.2914L41.2007 42.2914C39.4661 44.0265 37.1128 45.0011 34.6593 45.0011C32.2059 45.0011 29.8525 44.0264 28.118 42.2914L28.1179 42.2914C26.3829 40.5568 25.4082 38.2035 25.4082 35.75C25.4082 33.2966 26.383 30.9432 28.1179 29.2087Z" fill="#D6DCE8" stroke="#D6DCE8" stroke-width="0.25"/>
<path d="M33.7974 57.1134C33.7974 57.5522 34.1533 57.9081 34.5921 57.9081C34.8027 57.9081 35.0048 57.8246 35.1541 57.6753C35.3034 57.526 35.3868 57.3239 35.3868 57.1134V45.8621C35.3868 45.4233 35.0309 45.0674 34.5921 45.0674C34.1533 45.0674 33.7974 45.4233 33.7974 45.8621V57.1134Z" fill="#D6DCE8" stroke="#D6DCE8" stroke-width="0.25"/>
<path d="M29.3779 54.8363C29.3779 55.2751 29.7338 55.631 30.1727 55.631C30.3832 55.631 30.5853 55.5476 30.7346 55.3983C30.8839 55.249 30.9674 55.0469 30.9674 54.8363V45.0584C30.9674 44.6196 30.6115 44.2637 30.1727 44.2637C29.7338 44.2637 29.3779 44.6196 29.3779 45.0584V54.8363Z" fill="#D6DCE8" stroke="#D6DCE8" stroke-width="0.25"/>
<path d="M38.0835 54.8363C38.0835 55.2751 38.4394 55.631 38.8782 55.631C39.0888 55.631 39.2909 55.5476 39.4402 55.3983C39.5895 55.249 39.6729 55.0469 39.6729 54.8363V45.0584C39.6729 44.6196 39.317 44.2637 38.8782 44.2637C38.4394 44.2637 38.0835 44.6196 38.0835 45.0584V54.8363Z" fill="#D6DCE8" stroke="#D6DCE8" stroke-width="0.25"/>
<path d="M33.6641 25.6368C33.6641 26.0756 34.02 26.4315 34.4588 26.4315C34.6694 26.4315 34.8715 26.3481 35.0208 26.1988C35.1701 26.0495 35.2535 25.8474 35.2535 25.6368V14.3855C35.2535 13.9467 34.8976 13.5908 34.4588 13.5908C34.02 13.5908 33.6641 13.9467 33.6641 14.3855V25.6368Z" fill="#D6DCE8" stroke="#D6DCE8" stroke-width="0.25"/>
<path d="M38.0835 26.4398C38.0835 26.8786 38.4394 27.2345 38.8782 27.2345C39.0888 27.2345 39.2909 27.1511 39.4402 27.0018C39.5895 26.8525 39.6729 26.6504 39.6729 26.4398V16.6619C39.6729 16.2231 39.317 15.8672 38.8782 15.8672C38.4394 15.8672 38.0835 16.2231 38.0835 16.6619V26.4398Z" fill="#D6DCE8" stroke="#D6DCE8" stroke-width="0.25"/>
<path d="M29.3779 26.4398C29.3779 26.8786 29.7338 27.2345 30.1727 27.2345C30.3832 27.2345 30.5853 27.1511 30.7346 27.0018C30.8839 26.8525 30.9674 26.6504 30.9674 26.4398V16.6619C30.9674 16.2231 30.6115 15.8672 30.1727 15.8672C29.7338 15.8672 29.3779 16.2231 29.3779 16.6619V26.4398Z" fill="#D6DCE8" stroke="#D6DCE8" stroke-width="0.25"/>
<path d="M25.81 59.5999L25.81 59.6C26.8916 60.6812 27.4998 62.1476 27.5017 63.6769C27.5018 64.1157 27.8577 64.4715 28.2964 64.4715H41.0215C41.2321 64.4715 41.4342 64.388 41.5835 64.2387C41.7328 64.0894 41.8162 63.8873 41.8162 63.6768C41.8162 60.5485 44.4002 57.9083 47.4508 57.9083C47.6613 57.9083 47.8635 57.8248 48.0128 57.6755C48.1621 57.5262 48.2455 57.3241 48.2455 57.1135V14.3851C48.2455 14.1746 48.162 13.9724 48.0128 13.8231L47.9244 13.9115L48.0128 13.8231C47.8635 13.6738 47.6613 13.5904 47.4508 13.5904C44.3975 13.5904 41.8162 11.0091 41.8162 7.95586C41.8162 7.74529 41.7328 7.54317 41.5835 7.39388L41.4952 7.48217L41.5835 7.39388C41.4342 7.24458 41.2321 7.16113 41.0215 7.16113H28.2964C27.8576 7.16113 27.5017 7.51705 27.5017 7.95586C27.5017 11.0064 24.8615 13.5904 21.7332 13.5904C21.2944 13.5904 20.9385 13.9463 20.9385 14.3851V57.1135C20.9385 57.5523 21.2943 57.9082 21.7331 57.9083C23.2623 57.9101 24.7289 58.5183 25.81 59.5999ZM29.0486 62.882C28.8652 61.2168 28.12 59.6627 26.9343 58.4765L26.9342 58.4765C25.748 57.2907 24.1936 56.5456 22.5283 56.3621V15.1382C24.1896 14.96 25.7421 14.2217 26.9297 13.0434C28.1088 11.8979 28.8558 10.382 29.0466 8.75139H40.2729C40.6526 12.0492 43.3582 14.7549 46.6561 15.1346V56.3637C45.0255 56.5545 43.5097 57.3014 42.3641 58.4806C41.1858 59.6681 40.4475 61.2207 40.2692 62.882H29.0486Z" fill="#D6DCE8" stroke="#D6DCE8" stroke-width="0.25"/>
<path d="M35.0208 12.1342L35.0208 12.1342C35.1701 11.9849 35.2535 11.7828 35.2535 11.5722V11.4383C35.2535 10.9995 34.8976 10.6436 34.4588 10.6436C34.02 10.6436 33.6641 10.9995 33.6641 11.4383V11.5722C33.6641 12.0111 34.02 12.367 34.4588 12.367C34.6694 12.367 34.8715 12.2835 35.0208 12.1342Z" fill="#D6DCE8" stroke="#D6DCE8" stroke-width="0.25"/>
<path d="M35.1541 60.3549L35.1541 60.3549C35.3034 60.2056 35.3868 60.0035 35.3868 59.7929V59.659C35.3868 59.2202 35.0309 58.8643 34.5921 58.8643C34.1533 58.8643 33.7974 59.2202 33.7974 59.659V59.7929C33.7974 60.2318 34.1533 60.5877 34.5921 60.5877C34.8027 60.5877 35.0048 60.5042 35.1541 60.3549Z" fill="#D6DCE8" stroke="#D6DCE8" stroke-width="0.25"/>
<path d="M75.3103 21.0738H78.659C79.0978 21.0738 79.4537 20.7179 79.4537 20.2791C79.4537 19.8403 79.0978 19.4844 78.659 19.4844H75.3103C74.8715 19.4844 74.5156 19.8403 74.5156 20.2791C74.5156 20.7179 74.8715 21.0738 75.3103 21.0738Z" fill="#D6DCE8" stroke="#D6DCE8" stroke-width="0.25"/>
<path d="M75.3103 27.3687H78.659C79.0978 27.3687 79.4537 27.0128 79.4537 26.574C79.4537 26.1352 79.0978 25.7793 78.659 25.7793H75.3103C74.8715 25.7793 74.5156 26.1352 74.5156 26.574C74.5156 27.0128 74.8715 27.3687 75.3103 27.3687Z" fill="#D6DCE8" stroke="#D6DCE8" stroke-width="0.25"/>
<path d="M75.3103 33.6637H78.659C79.0978 33.6637 79.4537 33.3078 79.4537 32.8689C79.4537 32.4301 79.0978 32.0742 78.659 32.0742H75.3103C74.8715 32.0742 74.5156 32.4301 74.5156 32.8689C74.5156 33.3078 74.8715 33.6637 75.3103 33.6637Z" fill="#D6DCE8" stroke="#D6DCE8" stroke-width="0.25"/>
<path d="M75.3103 39.9596H78.659C79.0978 39.9596 79.4537 39.6037 79.4537 39.1648C79.4537 38.726 79.0978 38.3701 78.659 38.3701H75.3103C74.8715 38.3701 74.5156 38.726 74.5156 39.1648C74.5156 39.6037 74.8715 39.9596 75.3103 39.9596Z" fill="#D6DCE8" stroke="#D6DCE8" stroke-width="0.25"/>
<path d="M75.3103 46.2545H78.659C79.0978 46.2545 79.4537 45.8986 79.4537 45.4598C79.4537 45.0209 79.0978 44.665 78.659 44.665H75.3103C74.8715 44.665 74.5156 45.0209 74.5156 45.4598C74.5156 45.8986 74.8715 46.2545 75.3103 46.2545Z" fill="#D6DCE8" stroke="#D6DCE8" stroke-width="0.25"/>
<path d="M51.7371 21.0738H69.1501C69.5889 21.0738 69.9448 20.7179 69.9448 20.2791C69.9448 19.8403 69.5889 19.4844 69.1501 19.4844H51.7371C51.2983 19.4844 50.9424 19.8403 50.9424 20.2791C50.9424 20.7179 51.2983 21.0738 51.7371 21.0738Z" fill="#D6DCE8" stroke="#D6DCE8" stroke-width="0.25"/>
<path d="M51.7371 27.3687H69.1501C69.5889 27.3687 69.9448 27.0128 69.9448 26.574C69.9448 26.1352 69.5889 25.7793 69.1501 25.7793H51.7371C51.2983 25.7793 50.9424 26.1352 50.9424 26.574C50.9424 27.0128 51.2983 27.3687 51.7371 27.3687Z" fill="#D6DCE8" stroke="#D6DCE8" stroke-width="0.25"/>
<path d="M51.7371 33.6637H69.1501C69.5889 33.6637 69.9448 33.3078 69.9448 32.8689C69.9448 32.4301 69.5889 32.0742 69.1501 32.0742H51.7371C51.2983 32.0742 50.9424 32.4301 50.9424 32.8689C50.9424 33.3078 51.2983 33.6637 51.7371 33.6637Z" fill="#D6DCE8" stroke="#D6DCE8" stroke-width="0.25"/>
<path d="M51.7371 39.9596H69.1501C69.5889 39.9596 69.9448 39.6037 69.9448 39.1648C69.9448 38.726 69.5889 38.3701 69.1501 38.3701H51.7371C51.2983 38.3701 50.9424 38.726 50.9424 39.1648C50.9424 39.6037 51.2983 39.9596 51.7371 39.9596Z" fill="#D6DCE8" stroke="#D6DCE8" stroke-width="0.25"/>
<path d="M51.7371 46.2545H69.1501C69.5889 46.2545 69.9448 45.8986 69.9448 45.4598C69.9448 45.0209 69.5889 44.665 69.1501 44.665H51.7371C51.2983 44.665 50.9424 45.0209 50.9424 45.4598C50.9424 45.8986 51.2983 46.2545 51.7371 46.2545Z" fill="#D6DCE8" stroke="#D6DCE8" stroke-width="0.25"/>
<path d="M61.3969 58.3643H61.1492C60.7628 58.3643 60.3778 58.3156 60.0037 58.2197C59.0351 57.9738 58.2789 57.4177 57.5673 56.8945L57.5495 56.8814L57.5494 56.8813C56.6589 56.2244 55.9345 55.6959 54.9692 55.7706L54.9692 55.7706C53.6044 55.876 52.7803 57.0922 52.4017 57.8389L52.367 57.9073H52.3647C52.2691 58.0669 52.1198 58.1883 51.9427 58.2497C51.7393 58.3201 51.5167 58.3047 51.3249 58.2077C51.1333 58.1108 50.9884 57.9406 50.9247 57.7348C50.8607 57.5303 50.8827 57.3086 50.9845 57.1201C51.8745 55.364 53.2429 54.309 54.8466 54.1857C54.8466 54.1857 54.8466 54.1857 54.8466 54.1857L54.8562 54.3103C56.3726 54.1936 57.46 54.9949 58.4191 55.7019L61.3969 58.3643ZM61.3969 58.3643L61.3912 58.3565M61.3969 58.3643L61.3912 58.3565M61.3912 58.3565C62.1856 58.3114 62.9578 58.0697 63.6375 57.6521C65.1964 58.2439 67.1574 58.3313 69.1458 57.8435L69.1467 57.8432C69.5701 57.736 69.8278 57.3074 69.7234 56.8828L69.7234 56.8828C69.6189 56.4588 69.1916 56.1982 68.7669 56.2998L68.671 56.3228V56.3232C67.5367 56.587 66.2253 56.6536 65.0617 56.4157C65.2376 56.2032 65.3996 55.9794 65.5462 55.7456H65.5473L65.5838 55.6856C66.4195 54.3126 66.549 52.9109 65.8671 51.8572L65.8666 51.8565C65.5945 51.4423 65.2114 51.1129 64.7614 50.9065C64.354 50.7194 63.9064 50.6399 63.4613 50.6735V50.6693L63.3203 50.6876C62.1539 50.8386 61.2092 51.7283 60.7798 53.0391L60.7798 53.0392C60.4092 54.1719 60.7073 55.3651 61.5823 56.3106L61.5825 56.3109C61.7016 56.4388 61.8276 56.5602 61.9599 56.6743C61.479 56.8058 60.9721 56.8155 60.4853 56.7021L61.3912 58.3565ZM63.669 52.2522L63.669 52.2549C64.0177 52.2527 64.3434 52.4283 64.5336 52.7204C64.8486 53.2082 64.768 53.977 64.2291 54.8533L64.229 54.8535C64.014 55.2042 63.7538 55.5246 63.4552 55.8069C63.1944 55.6473 62.9562 55.4531 62.7473 55.2295L63.669 52.2522Z" fill="#D6DCE8" stroke="#D6DCE8" stroke-width="0.25"/>
<path d="M44.5023 96.802C38.6964 96.802 30.8002 96.0249 19.1441 94.1207C18.5868 94.0302 18.2085 93.5043 18.299 92.947C18.3903 92.3897 18.9155 92.0114 19.4735 92.1027C41.9129 95.7611 49.9867 95.217 56.301 93.0332L67.124 88.168L90.8012 77.5679C91.5214 77.2356 92.0589 76.6038 92.2715 75.8398C92.5176 74.94 92.4446 73.9832 92.0648 73.1309C91.685 72.2792 91.0218 71.5854 90.1877 71.1668C89.4792 70.8082 88.6488 70.7775 87.9155 71.0828L87.8563 71.1077L68.6124 78.1983V78.1976C68.3568 78.2984 68.0712 78.2918 67.8199 78.1793C67.5694 78.0668 67.3744 77.8579 67.2794 77.6001C67.1838 77.3423 67.1969 77.0567 67.3145 76.8084C67.4321 76.56 67.6446 76.3694 67.9046 76.2796L87.128 69.1992C88.3938 68.6646 89.8289 68.7062 91.0611 69.3139C92.3393 69.9435 93.3559 71.0025 93.9322 72.3063C94.5085 73.6093 94.6086 75.0738 94.2141 76.4432C93.8321 77.7747 92.8826 78.8702 91.619 79.4372L67.9512 90.0329L57.0895 94.9163C57.0625 94.9294 57.034 94.9404 57.0055 94.9491C53.7517 96.0805 50.091 96.8021 44.502 96.8021L44.5023 96.802Z" fill="#D6DCE8"/>
<path d="M64.6628 84.9618C64.5627 84.9618 64.4582 84.9618 64.3604 84.9516L61.2928 84.7631L43.578 83.9451C43.0134 83.9188 42.5773 83.4397 42.6036 82.8751C42.6299 82.3097 43.1098 81.8737 43.6744 81.9L61.4031 82.718L64.497 82.9065C65.2895 82.9474 66.0586 82.6355 66.5998 82.0556C67.2352 81.3741 67.615 80.494 67.6756 79.5642C67.7355 78.6344 67.4719 77.7127 66.9292 76.9553C66.4654 76.3104 65.7445 75.9006 64.9536 75.8327L61.8983 75.6465L40.9528 73.9797C40.8513 73.9717 40.7513 73.9483 40.6563 73.9103C38.2299 73.0499 35.6868 72.5671 33.1143 72.4788C27.6087 72.3005 23.2263 74.0885 20.0893 77.7961H20.0886C19.7241 78.2278 19.0784 78.2811 18.6468 77.9166C18.2159 77.5521 18.1618 76.9065 18.5263 76.4748C22.0518 72.3072 27.1419 70.2213 33.2509 70.4359C35.9833 70.5382 38.6849 71.0524 41.2639 71.961L62.0449 73.6131L65.0863 73.7994L65.0855 73.8001C66.4711 73.9002 67.742 74.6035 68.5622 75.7239C69.4022 76.8728 69.8119 78.2803 69.7206 79.701C69.6286 81.1209 69.0414 82.464 68.0612 83.4954C67.1745 84.4244 65.9489 84.954 64.6641 84.962L64.6628 84.9618Z" fill="#D6DCE8"/>
<path d="M19.0191 100.749H13.7018C13.1372 100.749 12.6792 100.291 12.6792 99.726C12.6792 99.1614 13.1371 98.7034 13.7018 98.7034H17.9965V72.9357H13.7018C13.1372 72.9357 12.6792 72.4778 12.6792 71.9132C12.6792 71.3486 13.1371 70.8906 13.7018 70.8906H19.0191C19.2901 70.8906 19.5501 70.998 19.7422 71.1901C19.9343 71.3822 20.0416 71.6422 20.0416 71.9132V99.7264C20.0416 99.9974 19.9343 100.257 19.7422 100.449C19.5501 100.642 19.2901 100.749 19.0191 100.749V100.749Z" fill="#D6DCE8"/>
<path d="M13.4975 103H1.84043C1.27584 103 0.817871 102.542 0.817871 101.977V68.6427C0.817871 68.0781 1.27582 67.6201 1.84043 67.6201H13.4975C13.7685 67.6201 14.0285 67.7275 14.2206 67.9196C14.4127 68.1117 14.52 68.3717 14.52 68.6427V101.977C14.52 102.248 14.4127 102.508 14.2206 102.7C14.0285 102.893 13.7685 103 13.4975 103ZM2.86302 100.955H12.4749V69.6656H2.86302V100.955Z" fill="#D6DCE8"/>
<path d="M7.5665 97.0694C7.00192 97.0694 6.54395 96.6115 6.54395 96.0469V94.6153C6.54395 94.0507 7.0019 93.5928 7.5665 93.5928C8.1311 93.5928 8.58905 94.0507 8.58905 94.6153V96.0469C8.58905 96.3179 8.48169 96.5779 8.28959 96.77C8.0975 96.9621 7.83747 97.0694 7.5665 97.0694Z" fill="#D6DCE8"/>
</g>
</svg>
