<svg width="18" height="18" viewBox="0 0 18 18" fill="none" xmlns="http://www.w3.org/2000/svg">
<path d="M16.3567 5.6751L10.8983 1.30843C9.83167 0.45843 8.16501 0.450097 7.10667 1.3001L1.64834 5.6751C0.865008 6.3001 0.390008 7.5501 0.556675 8.53343L1.60667 14.8168C1.84834 16.2251 3.15667 17.3334 4.58167 17.3334H13.415C14.8233 17.3334 16.1567 16.2001 16.3983 14.8084L17.4483 8.5251C17.5983 7.5501 17.1233 6.3001 16.3567 5.6751ZM9.62334 14.0001C9.62334 14.3418 9.34001 14.6251 8.99834 14.6251C8.65667 14.6251 8.37334 14.3418 8.37334 14.0001V11.5001C8.37334 11.1584 8.65667 10.8751 8.99834 10.8751C9.34001 10.8751 9.62334 11.1584 9.62334 11.5001V14.0001Z" fill="#D0DAEF"/>
</svg>
