<svg width="22" height="22" viewBox="0 0 22 22" fill="none" xmlns="http://www.w3.org/2000/svg">
<path d="M11.0002 20.8541C5.56433 20.8541 1.146 16.4358 1.146 10.9999C1.146 5.56409 5.56433 1.14575 11.0002 1.14575C16.436 1.14575 20.8543 5.56409 20.8543 10.9999C20.8543 16.4358 16.436 20.8541 11.0002 20.8541ZM11.0002 2.52075C6.32516 2.52075 2.521 6.32492 2.521 10.9999C2.521 15.6749 6.32516 19.4791 11.0002 19.4791C15.6752 19.4791 19.4793 15.6749 19.4793 10.9999C19.4793 6.32492 15.6752 2.52075 11.0002 2.52075Z" fill="white"/>
<path d="M11 12.6041C10.6242 12.6041 10.3125 12.2924 10.3125 11.9166V7.33325C10.3125 6.95742 10.6242 6.64575 11 6.64575C11.3758 6.64575 11.6875 6.95742 11.6875 7.33325V11.9166C11.6875 12.2924 11.3758 12.6041 11 12.6041Z" fill="white"/>
<path d="M11.0002 15.5834C10.881 15.5834 10.7618 15.5559 10.6518 15.5101C10.5418 15.4642 10.441 15.4001 10.3493 15.3176C10.2668 15.2259 10.2027 15.1342 10.1568 15.0151C10.111 14.9051 10.0835 14.7859 10.0835 14.6667C10.0835 14.5476 10.111 14.4284 10.1568 14.3184C10.2027 14.2084 10.2668 14.1076 10.3493 14.0159C10.441 13.9334 10.5418 13.8692 10.6518 13.8234C10.8718 13.7317 11.1285 13.7317 11.3485 13.8234C11.4585 13.8692 11.5593 13.9334 11.651 14.0159C11.7335 14.1076 11.7977 14.2084 11.8435 14.3184C11.8893 14.4284 11.9168 14.5476 11.9168 14.6667C11.9168 14.7859 11.8893 14.9051 11.8435 15.0151C11.7977 15.1342 11.7335 15.2259 11.651 15.3176C11.5593 15.4001 11.4585 15.4642 11.3485 15.5101C11.2385 15.5559 11.1193 15.5834 11.0002 15.5834Z" fill="white"/>
</svg>
