<svg width="56" height="56" viewBox="0 0 56 56" fill="none" xmlns="http://www.w3.org/2000/svg">
<path fill-rule="evenodd" clip-rule="evenodd" d="M28.0001 4.6665C29.2887 4.6665 30.3334 5.71117 30.3334 6.99984V11.6665C30.3334 12.9552 29.2887 13.9998 28.0001 13.9998C26.7114 13.9998 25.6667 12.9552 25.6667 11.6665V6.99984C25.6667 5.71117 26.7114 4.6665 28.0001 4.6665Z" fill="black"/>
<path fill-rule="evenodd" clip-rule="evenodd" d="M28.0001 42C29.2887 42 30.3334 43.0447 30.3334 44.3333V49C30.3334 50.2887 29.2887 51.3333 28.0001 51.3333C26.7114 51.3333 25.6667 50.2887 25.6667 49V44.3333C25.6667 43.0447 26.7114 42 28.0001 42Z" fill="black"/>
<path fill-rule="evenodd" clip-rule="evenodd" d="M11.5007 11.501C12.412 10.5897 13.8894 10.5897 14.8006 11.501L18.1004 14.8008C19.0116 15.712 19.0116 17.1894 18.1004 18.1006C17.1892 19.0118 15.7118 19.0118 14.8006 18.1006L11.5007 14.8008C10.5895 13.8896 10.5895 12.4122 11.5007 11.501Z" fill="black"/>
<path fill-rule="evenodd" clip-rule="evenodd" d="M37.8994 37.8994C38.8107 36.9882 40.288 36.9882 41.1993 37.8994L44.4991 41.1992C45.4103 42.1105 45.4103 43.5878 44.4991 44.4991C43.5879 45.4103 42.1105 45.4103 41.1993 44.4991L37.8994 41.1992C36.9882 40.288 36.9882 38.8106 37.8994 37.8994Z" fill="black"/>
<path fill-rule="evenodd" clip-rule="evenodd" d="M4.66675 28.0002C4.66675 26.7115 5.71142 25.6668 7.00008 25.6668L11.6667 25.6668C12.9554 25.6668 14.0001 26.7115 14.0001 28.0002C14.0001 29.2888 12.9554 30.3335 11.6667 30.3335L7.00008 30.3335C5.71142 30.3335 4.66675 29.2888 4.66675 28.0002Z" fill="black"/>
<path fill-rule="evenodd" clip-rule="evenodd" d="M42 28.0002C42 26.7115 43.0447 25.6668 44.3333 25.6668L49 25.6668C50.2887 25.6668 51.3333 26.7115 51.3333 28.0002C51.3333 29.2888 50.2887 30.3335 49 30.3335L44.3333 30.3335C43.0447 30.3335 42 29.2888 42 28.0002Z" fill="black"/>
<path fill-rule="evenodd" clip-rule="evenodd" d="M11.501 44.499C10.5897 43.5878 10.5897 42.1104 11.501 41.1992L14.8008 37.8993C15.712 36.9881 17.1894 36.9881 18.1006 37.8993C19.0118 38.8106 19.0118 40.288 18.1006 41.1992L14.8008 44.499C13.8896 45.4102 12.4122 45.4102 11.501 44.499Z" fill="black"/>
<path fill-rule="evenodd" clip-rule="evenodd" d="M37.8994 18.1006C36.9882 17.1893 36.9882 15.712 37.8994 14.8007L41.1992 11.5009C42.1105 10.5897 43.5878 10.5897 44.4991 11.5009C45.4103 12.4121 45.4103 13.8895 44.4991 14.8007L41.1992 18.1006C40.288 19.0118 38.8106 19.0118 37.8994 18.1006Z" fill="black"/>
</svg>
