<svg width="54" height="28" viewBox="0 0 54 28" fill="none" xmlns="http://www.w3.org/2000/svg">
<path d="M18.4731 21.4126L26.5736 9.60514C26.5736 9.60514 30.7884 2.79154 32.2452 1.64088C33.702 0.490217 37.2307 0.503119 38.4704 1.64088C39.7102 2.77864 44.3202 9.60514 44.3202 9.60514L52.4018 21.3873C54.1682 23.7356 52.5987 27.2175 49.7737 27.2175H35.2904H21.12C18.3091 27.2175 16.7352 23.7659 18.4731 21.4126Z" fill="#283249"/>
<path opacity="0.55" d="M0.727034 21.4126L8.82753 9.60514C8.82753 9.60514 13.0423 2.79154 14.4991 1.64088C15.9559 0.490217 19.4846 0.503119 20.7243 1.64088C21.9641 2.77864 26.5741 9.60514 26.5741 9.60514L34.6557 21.3873C36.4221 23.7356 34.8526 27.2175 32.0276 27.2175H17.5443H3.37395C0.562992 27.2175 -1.01086 23.7659 0.727034 21.4126Z" fill="#B8BCC5"/>
</svg>
