<svg width="20" height="20" viewBox="0 0 20 20" fill="none" xmlns="http://www.w3.org/2000/svg">
<mask id="path-1-inside-1_2660_63246" fill="white">
<path d="M5.05025 5.05042C4.07129 6.02938 3.4046 7.27666 3.1345 8.63453C2.86441 9.9924 3.00303 11.3999 3.53284 12.6789C4.06266 13.958 4.95986 15.0513 6.11101 15.8205C7.26215 16.5896 8.61553 17.0002 10 17.0002C11.3845 17.0002 12.7378 16.5896 13.889 15.8205C15.0401 15.0513 15.9373 13.958 16.4672 12.6789C16.997 11.3999 17.1356 9.9924 16.8655 8.63453C16.5954 7.27666 15.9287 6.02938 14.9497 5.05042L14.1721 5.82811C14.9972 6.65326 15.5591 7.70457 15.7868 8.8491C16.0145 9.99362 15.8976 11.1799 15.4511 12.2581C15.0045 13.3362 14.2482 14.2577 13.278 14.906C12.3077 15.5543 11.1669 15.9003 10 15.9003C8.83306 15.9003 7.69232 15.5543 6.72204 14.906C5.75176 14.2577 4.99552 13.3362 4.54895 12.2581C4.10238 11.1799 3.98554 9.99362 4.2132 8.8491C4.44085 7.70457 5.00279 6.65326 5.82795 5.82811L5.05025 5.05042Z"/>
</mask>
<path d="M5.05025 5.05042C4.07129 6.02938 3.4046 7.27666 3.1345 8.63453C2.86441 9.9924 3.00303 11.3999 3.53284 12.6789C4.06266 13.958 4.95986 15.0513 6.11101 15.8205C7.26215 16.5896 8.61553 17.0002 10 17.0002C11.3845 17.0002 12.7378 16.5896 13.889 15.8205C15.0401 15.0513 15.9373 13.958 16.4672 12.6789C16.997 11.3999 17.1356 9.9924 16.8655 8.63453C16.5954 7.27666 15.9287 6.02938 14.9497 5.05042L14.1721 5.82811C14.9972 6.65326 15.5591 7.70457 15.7868 8.8491C16.0145 9.99362 15.8976 11.1799 15.4511 12.2581C15.0045 13.3362 14.2482 14.2577 13.278 14.906C12.3077 15.5543 11.1669 15.9003 10 15.9003C8.83306 15.9003 7.69232 15.5543 6.72204 14.906C5.75176 14.2577 4.99552 13.3362 4.54895 12.2581C4.10238 11.1799 3.98554 9.99362 4.2132 8.8491C4.44085 7.70457 5.00279 6.65326 5.82795 5.82811L5.05025 5.05042Z" fill="white" stroke="#FF0000" stroke-width="2" mask="url(#path-1-inside-1_2660_63246)"/>
<path d="M10 10.0002V2.00024" stroke="#FF0000"/>
</svg>
