<svg width="210" height="35" viewBox="0 0 210 35" fill="none" xmlns="http://www.w3.org/2000/svg">
<path d="M24.2472 27.0767L34.8791 11.5794C34.8791 11.5794 40.411 2.63658 42.323 1.12634C44.2351 -0.383903 48.8665 -0.36697 50.4937 1.12634C52.1208 2.61965 58.1714 11.5794 58.1714 11.5794L68.7786 27.0436C71.097 30.1257 69.037 34.6957 65.3292 34.6957H46.3199H27.7213C24.0319 34.6957 21.9662 30.1655 24.2472 27.0767Z" fill="#283249"/>
<path opacity="0.55" d="M0.954232 27.0767L11.5861 11.5794C11.5861 11.5794 17.118 2.63658 19.0301 1.12634C20.9421 -0.383903 25.5735 -0.36697 27.2007 1.12634C28.8279 2.61965 34.8785 11.5794 34.8785 11.5794L45.4856 27.0436C47.8041 30.1257 45.744 34.6957 42.0362 34.6957H23.0269H4.42832C0.738927 34.6957 -1.32676 30.1655 0.954232 27.0767Z" fill="#B8BCC5"/>
<path d="M78.8867 34.6955H83.7347V23.0477C85.0209 21.8216 86.2081 21.2085 87.2634 21.2085C89.0113 21.2085 89.8688 22.0843 89.8688 24.6241V34.6955H94.6838V23.0477C96.003 21.8216 97.1902 21.2085 98.2455 21.2085C99.9934 21.2085 100.818 22.0843 100.818 24.6241V34.6955H105.666V24.0986C105.666 19.9824 103.852 17.5303 99.9275 17.5303C97.52 17.5303 95.7391 18.8147 94.0572 20.3911C93.1667 18.5812 91.6167 17.5303 88.9784 17.5303C86.5709 17.5303 84.856 18.698 83.3059 20.1284H83.207L82.8442 17.5303H78.8867L78.8867 34.6955Z" fill="#161E30"/>
<path d="M118.721 34.6955C120.997 34.6955 123.338 33.9949 125.152 32.8856L123.503 30.2582C122.184 30.988 120.865 31.3967 119.348 31.3967C116.611 31.3967 114.632 29.9955 114.236 27.3098H125.614C125.746 26.9303 125.845 26.1421 125.845 25.3247C125.845 20.829 123.206 17.5303 118.128 17.5303C113.741 17.5303 109.52 20.829 109.52 26.1129C109.52 31.5135 113.544 34.6955 118.721 34.6955ZM114.17 24.4489C114.533 22.0843 116.248 20.8582 118.194 20.8582C120.568 20.8582 121.689 22.2595 121.689 24.4489H114.17Z" fill="#161E30"/>
<path d="M129.837 34.6955H134.685V24.5365C135.707 22.1719 137.455 21.3253 138.906 21.3253C139.665 21.3253 140.193 21.4129 140.852 21.588L141.677 17.8806C141.116 17.6762 140.522 17.5303 139.5 17.5303C137.587 17.5303 135.608 18.698 134.256 20.829H134.157L133.795 17.5303H129.837V34.6955Z" fill="#161E30"/>
<path d="M151.664 34.6955C153.708 34.6955 155.951 34.0825 157.732 32.7104L155.786 29.8787C154.764 30.6377 153.511 31.1924 152.191 31.1924C149.553 31.1924 147.607 29.2073 147.607 26.1129C147.607 23.0477 149.52 21.0334 152.356 21.0334C153.379 21.0334 154.236 21.4129 155.159 22.1135L157.468 19.3402C156.116 18.3185 154.368 17.5303 152.092 17.5303C147.08 17.5303 142.66 20.6831 142.66 26.1129C142.66 31.5427 146.552 34.6955 151.664 34.6955Z" fill="#161E30"/>
<path d="M167.925 34.6955C172.542 34.6955 176.796 31.5427 176.796 26.1129C176.796 20.6831 172.542 17.5303 167.925 17.5303C163.308 17.5303 159.053 20.6831 159.053 26.1129C159.053 31.5427 163.308 34.6955 167.925 34.6955ZM167.925 31.1924C165.418 31.1924 164 29.2073 164 26.1129C164 23.0477 165.418 21.0334 167.925 21.0334C170.431 21.0334 171.849 23.0477 171.849 26.1129C171.849 29.2073 170.431 31.1924 167.925 31.1924Z" fill="#161E30"/>
<path d="M180.852 34.6955H185.7V24.5365C186.722 22.1719 188.47 21.3253 189.921 21.3253C190.68 21.3253 191.207 21.4129 191.867 21.588L192.691 17.8806C192.131 17.6762 191.537 17.5303 190.515 17.5303C188.602 17.5303 186.623 18.698 185.271 20.829H185.172L184.809 17.5303H180.852V34.6955Z" fill="#161E30"/>
<path d="M202.876 34.6955C205.152 34.6955 207.493 33.9949 209.307 32.8856L207.658 30.2582C206.339 30.988 205.02 31.3967 203.503 31.3967C200.766 31.3967 198.787 29.9955 198.391 27.3098H209.769C209.901 26.9303 210 26.1421 210 25.3247C210 20.829 207.361 17.5303 202.283 17.5303C197.896 17.5303 193.675 20.829 193.675 26.1129C193.675 31.5135 197.699 34.6955 202.876 34.6955ZM198.325 24.4489C198.688 22.0843 200.403 20.8582 202.349 20.8582C204.723 20.8582 205.844 22.2595 205.844 24.4489H198.325Z" fill="#161E30"/>
</svg>
