<svg width="140" height="23" viewBox="0 0 140 23" fill="none" xmlns="http://www.w3.org/2000/svg">
<path d="M16.0705 17.9491L23.1184 7.67599C23.1184 7.67599 26.7855 1.74779 28.053 0.746649C29.3205 -0.254489 32.3906 -0.243264 33.4693 0.74665C34.5479 1.73656 38.5589 7.67599 38.5589 7.67599L45.5903 17.9271C47.1272 19.9703 45.7616 22.9997 43.3037 22.9997H30.7025H18.3735C15.9278 22.9997 14.5585 19.9966 16.0705 17.9491Z" fill="white"/>
<path opacity="0.55" d="M0.632559 17.9491L7.68043 7.67599C7.68043 7.67599 11.3475 1.74779 12.615 0.746649C13.8825 -0.254489 16.9527 -0.243264 18.0313 0.74665C19.11 1.73656 23.1209 7.67599 23.1209 7.67599L30.1523 17.9271C31.6893 19.9703 30.3237 22.9997 27.8657 22.9997H15.2645H2.93552C0.489834 22.9997 -0.879507 19.9966 0.632559 17.9491Z" fill="#D0D3DA"/>
<path d="M52.291 22.9999H55.5047V15.2786C56.3573 14.4658 57.1444 14.0594 57.8439 14.0594C59.0026 14.0594 59.571 14.64 59.571 16.3236V22.9999H62.7629V15.2786C63.6373 14.4658 64.4244 14.0594 65.1239 14.0594C66.2826 14.0594 66.8292 14.64 66.8292 16.3236V22.9999H70.0429V15.9752C70.0429 13.2466 68.8405 11.6211 66.2389 11.6211C64.643 11.6211 63.4624 12.4726 62.3475 13.5176C61.7572 12.3178 60.7297 11.6211 58.9808 11.6211C57.3848 11.6211 56.248 12.3952 55.2205 13.3434H55.1549L54.9144 11.6211H52.291L52.291 22.9999Z" fill="white"/>
<path d="M78.6973 22.9999C80.2058 22.9999 81.7579 22.5355 82.9604 21.8001L81.8673 20.0584C80.9928 20.5422 80.1183 20.8132 79.1127 20.8132C77.2981 20.8132 75.9864 19.8843 75.7241 18.1039H83.2664C83.3539 17.8523 83.4194 17.3298 83.4194 16.788C83.4194 13.8078 81.6705 11.6211 78.3038 11.6211C75.3961 11.6211 72.5978 13.8078 72.5978 17.3105C72.5978 20.8906 75.265 22.9999 78.6973 22.9999ZM75.6803 16.2074C75.9208 14.64 77.0576 13.8272 78.3475 13.8272C79.9215 13.8272 80.6649 14.7561 80.6649 16.2074H75.6803Z" fill="white"/>
<path d="M86.0659 22.9999H89.2796V16.2655C89.9574 14.698 91.116 14.1368 92.078 14.1368C92.5808 14.1368 92.9306 14.1949 93.3678 14.311L93.9144 11.8533C93.5427 11.7179 93.1492 11.6211 92.4715 11.6211C91.2035 11.6211 89.8918 12.3952 88.9954 13.8078H88.9298L88.6894 11.6211H86.0659V22.9999Z" fill="white"/>
<path d="M100.535 22.9999C101.89 22.9999 103.377 22.5935 104.557 21.684L103.267 19.8069C102.59 20.31 101.759 20.6777 100.885 20.6777C99.1356 20.6777 97.8457 19.3618 97.8457 17.3105C97.8457 15.2786 99.1137 13.9433 100.994 13.9433C101.672 13.9433 102.24 14.1949 102.852 14.6593L104.382 12.8209C103.486 12.1436 102.327 11.6211 100.819 11.6211C97.4959 11.6211 94.5665 13.7111 94.5665 17.3105C94.5665 20.9099 97.1462 22.9999 100.535 22.9999Z" fill="white"/>
<path d="M111.314 22.9999C114.375 22.9999 117.195 20.9099 117.195 17.3105C117.195 13.7111 114.375 11.6211 111.314 11.6211C108.254 11.6211 105.433 13.7111 105.433 17.3105C105.433 20.9099 108.254 22.9999 111.314 22.9999ZM111.314 20.6777C109.653 20.6777 108.713 19.3618 108.713 17.3105C108.713 15.2786 109.653 13.9433 111.314 13.9433C112.976 13.9433 113.916 15.2786 113.916 17.3105C113.916 19.3618 112.976 20.6777 111.314 20.6777Z" fill="white"/>
<path d="M119.884 22.9999H123.097V16.2655C123.775 14.698 124.934 14.1368 125.896 14.1368C126.398 14.1368 126.748 14.1949 127.185 14.311L127.732 11.8533C127.36 11.7179 126.967 11.6211 126.289 11.6211C125.021 11.6211 123.709 12.3952 122.813 13.8078H122.747L122.507 11.6211H119.884V22.9999Z" fill="white"/>
<path d="M134.484 22.9999C135.992 22.9999 137.544 22.5355 138.747 21.8001L137.654 20.0584C136.779 20.5422 135.905 20.8132 134.899 20.8132C133.084 20.8132 131.773 19.8843 131.51 18.1039H139.053C139.14 17.8523 139.206 17.3298 139.206 16.788C139.206 13.8078 137.457 11.6211 134.09 11.6211C131.182 11.6211 128.384 13.8078 128.384 17.3105C128.384 20.8906 131.051 22.9999 134.484 22.9999ZM131.467 16.2074C131.707 14.64 132.844 13.8272 134.134 13.8272C135.708 13.8272 136.451 14.7561 136.451 16.2074H131.467Z" fill="white"/>
</svg>
