<svg width="101" height="90" viewBox="0 0 101 90" fill="none" xmlns="http://www.w3.org/2000/svg">
<path d="M87.0519 16.7316C88.8058 16.7316 90.2277 15.3098 90.2277 13.5558C90.2277 11.8018 88.8058 10.3799 87.0519 10.3799C85.2979 10.3799 83.876 11.8018 83.876 13.5558C83.876 15.3098 85.2979 16.7316 87.0519 16.7316Z" fill="#EAEEF9"/>
<path d="M91.6992 4.33779C92.897 4.33779 93.8681 3.36674 93.8681 2.16889C93.8681 0.971046 92.897 0 91.6992 0C90.5013 0 89.5303 0.971046 89.5303 2.16889C89.5303 3.36674 90.5013 4.33779 91.6992 4.33779Z" fill="#EAEEF9"/>
<path d="M13.1545 16.6542C14.3523 16.6542 15.3234 15.6831 15.3234 14.4853C15.3234 13.2875 14.3523 12.3164 13.1545 12.3164C11.9566 12.3164 10.9856 13.2875 10.9856 14.4853C10.9856 15.6831 11.9566 16.6542 13.1545 16.6542Z" fill="#EAEEF9"/>
<path d="M4.02794 63.5393C6.25252 63.5393 8.05589 61.7359 8.05589 59.5113C8.05589 57.2868 6.25252 55.4834 4.02794 55.4834C1.80337 55.4834 0 57.2868 0 59.5113C0 61.7359 1.80337 63.5393 4.02794 63.5393Z" fill="#EAEEF9"/>
<path d="M81.6776 68.2019H18.9926C16.1105 68.2019 13.7688 65.8602 13.7688 62.9781V22.8092C13.7688 19.9271 16.1105 17.5854 18.9926 17.5854H81.6776C84.5597 17.5854 86.9014 19.9271 86.9014 22.8092V63.1582C86.7213 65.8602 84.3796 68.2019 81.6776 68.2019Z" fill="white" stroke="#D6DCE8" stroke-width="2" stroke-miterlimit="10"/>
<rect x="24.6633" y="19.4365" width="11.8882" height="3.99145" fill="#F1F3F9" stroke="#D6DCE8" stroke-width="2" stroke-miterlimit="10"/>
<rect x="63.7112" y="19.4365" width="11.6155" height="3.99145" fill="#F1F3F9" stroke="#D6DCE8" stroke-width="2" stroke-miterlimit="10"/>
<path d="M34.4839 10.3804H26.7383V21.2754H34.4839V10.3804Z" fill="white" stroke="#D6DCE8" stroke-width="2" stroke-miterlimit="10"/>
<path d="M73.3957 10.3804H65.6501V21.2754H73.3957V10.3804Z" fill="white" stroke="#D6DCE8" stroke-width="2" stroke-miterlimit="10"/>
<path d="M36.465 45.1454C39.748 45.1454 42.4093 42.484 42.4093 39.2011C42.4093 35.9182 39.748 33.2568 36.465 33.2568C33.1821 33.2568 30.5208 35.9182 30.5208 39.2011C30.5208 42.484 33.1821 45.1454 36.465 45.1454Z" stroke="#9FA8BA" stroke-width="4" stroke-miterlimit="10" stroke-linecap="round" stroke-linejoin="round"/>
<path d="M26.9182 54.8743C26.9182 49.6505 31.2413 45.3274 36.4651 45.3274C41.6888 45.3274 46.0119 49.6505 46.0119 54.8743" stroke="#9FA8BA" stroke-width="4" stroke-miterlimit="10" stroke-linecap="round" stroke-linejoin="round"/>
<path d="M55.9189 38.1201H75.1928" stroke="#9FA8BA" stroke-width="4" stroke-miterlimit="10" stroke-linecap="round" stroke-linejoin="round"/>
<path d="M55.9189 47.8472H63.4844" stroke="#9FA8BA" stroke-width="4" stroke-miterlimit="10" stroke-linecap="round" stroke-linejoin="round"/>
<path d="M89.1631 81.9025H72.1129C70.2345 81.9025 68.7173 80.3821 68.7173 78.4997V54.8248C68.7173 48.2364 74.0635 42.9512 80.5658 42.9512C87.068 42.9512 92.4142 48.3088 92.4142 54.8248V78.5721C92.4865 80.3821 90.9693 81.9025 89.1631 81.9025ZM75.5085 75.1693H85.7675V54.8248C85.7675 52.0012 83.4556 49.6844 80.638 49.6844C77.8204 49.6844 75.5085 52.0012 75.5085 54.8248V75.1693Z" fill="#D6DCE8" stroke="#AAB2C5" stroke-width="2" stroke-miterlimit="10"/>
<path d="M96.1709 88.3461H65.3215C63.2264 88.3461 61.4924 86.6085 61.4924 84.5089V64.0196C61.4924 61.92 63.2264 60.1824 65.3215 60.1824H96.1709C98.266 60.1824 100 61.92 100 64.0196V84.5089C100 86.6085 98.266 88.3461 96.1709 88.3461Z" fill="#D6DCE8" stroke="#AAB2C5" stroke-width="2" stroke-miterlimit="10"/>
<path d="M83.2176 75.0257C84.2641 74.2547 84.9662 73.0056 84.9662 71.5763C84.9662 69.2133 83.0734 67.3135 80.7103 67.3135C78.3471 67.3135 76.4543 69.2133 76.4543 71.5763C76.4543 73.0056 77.1564 74.2547 78.2029 75.0257V77.9811C78.2029 79.3773 79.3118 80.4917 80.7103 80.4917C82.1087 80.4917 83.2176 79.3773 83.2176 77.9811V75.0257Z" fill="white" stroke="#AAB2C5" stroke-width="2"/>
</svg>
