<svg width="350" height="529" viewBox="0 0 350 529" fill="none" xmlns="http://www.w3.org/2000/svg">
<g opacity="0.05">
<path d="M-46.0013 415.038L162.598 363.14C162.598 363.14 277.835 328.616 305.622 330.202C333.41 331.789 372.718 367.064 375.196 392.178C377.675 417.292 360.936 539.817 360.936 539.817L333.442 752.533C329.702 796.48 277.344 819.939 245.772 791.815L83.9049 647.625L-74.4648 506.551C-105.88 478.567 -88.9563 424.153 -46.0013 415.038Z" fill="#F1F4F8"/>
<path opacity="0.55" d="M-243.829 238.815L-35.2294 186.918C-35.2294 186.918 80.0073 152.393 107.795 153.98C135.582 155.567 174.89 190.842 177.369 215.956C179.847 241.07 163.108 363.594 163.108 363.594L135.614 576.311C131.875 620.257 79.5168 643.717 47.944 615.592L-113.923 471.403L-272.292 330.329C-303.708 302.344 -286.784 247.93 -243.829 238.815Z" fill="#E9F0F9"/>
</g>
</svg>
