<svg width="18" height="18" viewBox="0 0 18 18" fill="none" xmlns="http://www.w3.org/2000/svg">
<path d="M9 9.5625C6.6225 9.5625 4.6875 7.6275 4.6875 5.25C4.6875 2.8725 6.6225 0.9375 9 0.9375C11.3775 0.9375 13.3125 2.8725 13.3125 5.25C13.3125 7.6275 11.3775 9.5625 9 9.5625ZM9 2.0625C7.245 2.0625 5.8125 3.495 5.8125 5.25C5.8125 7.005 7.245 8.4375 9 8.4375C10.755 8.4375 12.1875 7.005 12.1875 5.25C12.1875 3.495 10.755 2.0625 9 2.0625Z" fill="#283249"/>
<path d="M11.8647 17.0625C11.5797 17.0625 11.3097 16.9575 11.1147 16.7625C10.8822 16.53 10.7772 16.1925 10.8297 15.84L10.9722 14.8275C11.0097 14.565 11.1672 14.2575 11.3547 14.0625L14.0097 11.4075C15.0747 10.3425 16.0122 10.95 16.4697 11.4075C16.8597 11.7975 17.0622 12.2175 17.0622 12.6375C17.0622 13.065 16.8672 13.4625 16.4697 13.86L13.8147 16.515C13.6272 16.7025 13.3122 16.8601 13.0497 16.8976L12.0372 17.04C11.9772 17.055 11.9247 17.0625 11.8647 17.0625ZM15.2322 11.94C15.0972 11.94 14.9772 12.03 14.8047 12.2025L12.1497 14.8575C12.1272 14.88 12.0897 14.955 12.0897 14.985L11.9547 15.9225L12.8922 15.7875C12.9222 15.78 12.9972 15.7425 13.0197 15.72L15.6747 13.065C15.7947 12.945 15.9372 12.7725 15.9372 12.6375C15.9372 12.525 15.8472 12.3675 15.6747 12.2025C15.4947 12.0225 15.3597 11.94 15.2322 11.94Z" fill="#283249"/>
<path d="M15.6904 14.415C15.6379 14.415 15.5854 14.4075 15.5404 14.3925C14.5504 14.115 13.7629 13.3275 13.4854 12.3375C13.4029 12.0375 13.5755 11.73 13.8755 11.6475C14.1755 11.565 14.4829 11.7375 14.5654 12.0375C14.7379 12.6525 15.2254 13.14 15.8404 13.3125C16.1404 13.395 16.313 13.71 16.2305 14.0025C16.163 14.25 15.9379 14.415 15.6904 14.415Z" fill="#283249"/>
<path d="M2.55762 17.0625C2.25012 17.0625 1.99512 16.8075 1.99512 16.5C1.99512 13.2975 5.13764 10.6875 9.00014 10.6875C9.81764 10.6875 10.6276 10.8075 11.3851 11.0325C11.6851 11.1225 11.8501 11.4375 11.7601 11.73C11.6701 12.03 11.3551 12.195 11.0626 12.105C10.4026 11.91 9.71264 11.805 9.00014 11.805C5.76014 11.805 3.12012 13.905 3.12012 16.4925C3.12012 16.8075 2.86512 17.0625 2.55762 17.0625Z" fill="#283249"/>
</svg>
