<svg width="20" height="20" viewBox="0 0 20 20" fill="none" xmlns="http://www.w3.org/2000/svg">
<path d="M10.0002 4.99967C13.1585 4.99967 15.9752 6.77467 17.3502 9.58301C15.9752 12.3913 13.1585 14.1663 10.0002 14.1663C6.84183 14.1663 4.02516 12.3913 2.65016 9.58301C4.02516 6.77467 6.84183 4.99967 10.0002 4.99967ZM10.0002 3.33301C5.8335 3.33301 2.27516 5.92467 0.833496 9.58301C2.27516 13.2413 5.8335 15.833 10.0002 15.833C14.1668 15.833 17.7252 13.2413 19.1668 9.58301C17.7252 5.92467 14.1668 3.33301 10.0002 3.33301ZM10.0002 7.49967C11.1502 7.49967 12.0835 8.43301 12.0835 9.58301C12.0835 10.733 11.1502 11.6663 10.0002 11.6663C8.85016 11.6663 7.91683 10.733 7.91683 9.58301C7.91683 8.43301 8.85016 7.49967 10.0002 7.49967ZM10.0002 5.83301C7.9335 5.83301 6.25016 7.51634 6.25016 9.58301C6.25016 11.6497 7.9335 13.333 10.0002 13.333C12.0668 13.333 13.7502 11.6497 13.7502 9.58301C13.7502 7.51634 12.0668 5.83301 10.0002 5.83301Z" fill="#B8BCC5"/>
</svg>
